<svg width="134" height="126" viewBox="0 0 134 126" fill="none" xmlns="http://www.w3.org/2000/svg">
<path fill-rule="evenodd" clip-rule="evenodd" d="M60.7684 4.35637C61.9976 2.05913 64.3915 0.625 66.9969 0.625C69.6056 0.625 72.0019 2.06265 73.2297 4.36428L132.241 114.989C133.446 117.248 133.383 119.972 132.075 122.172C130.756 124.391 128.366 125.75 125.785 125.75H8.0192C5.4404 125.75 3.0523 124.392 1.73434 122.175C0.42519 119.973 0.363669 117.247 1.57216 114.988L60.7684 4.35637ZM67 12.945L11.945 116.125H121.862L67 12.945ZM73.0156 106.5V96.875H60.9844V106.5H73.0156ZM60.9844 87.25V48.75H73.0156V87.25H60.9844Z" fill="#F8C125"/>
</svg>
