<svg width="24" height="24" viewBox="0 0 24 24" fill="none" xmlns="http://www.w3.org/2000/svg">
<path d="M23.8114 16.8322C23.7893 16.6916 23.7556 16.5531 23.7105 16.4181C23.2791 15.2176 22.049 14.4993 20.7915 14.7135C20.3755 14.779 19.9851 14.4949 19.9195 14.079L19.2867 10.0301C18.7674 6.60443 16.2926 3.79905 12.9585 2.85641C12.6552 1.00054 10.905 -0.258161 9.04904 0.0450789C7.21768 0.344316 5.96314 2.05482 6.228 3.89148C3.35412 5.71022 1.83711 9.06383 2.36873 12.423L3.04682 16.7324C3.10892 17.1475 2.8264 17.5357 2.41232 17.6043C1.14962 17.7865 0.199261 18.8477 0.156878 20.1228C0.142266 21.5377 1.27742 22.6965 2.69229 22.7111C2.70115 22.7112 2.71005 22.7113 2.71891 22.7113C2.85247 22.7112 2.98577 22.7009 3.11773 22.6806L5.74636 22.2672C6.66079 23.8996 8.72538 24.4817 10.3578 23.5673C11.22 23.0843 11.8283 22.2489 12.0233 21.28L21.678 19.7607C23.0758 19.5412 24.031 18.23 23.8114 16.8322ZM9.34602 1.81713C9.43504 1.80327 9.52496 1.79612 9.61504 1.79577C10.1875 1.79882 10.7208 2.0871 11.037 2.56438H10.996C10.6775 2.55477 10.3586 2.56393 10.0412 2.5917C9.70686 2.62362 9.37464 2.67496 9.04623 2.74542C8.97533 2.75993 8.90532 2.78045 8.83527 2.79751C8.56625 2.86071 8.30234 2.93502 8.04359 3.02299C8.01797 3.0307 7.9915 3.03495 7.96588 3.04436C8.14607 2.4004 8.68545 1.92077 9.34602 1.81713ZM8.69696 22.292C8.33502 22.2924 7.98254 22.1762 7.69181 21.9607L10.0831 21.5858C9.76125 22.0301 9.24559 22.2929 8.69696 22.292ZM22.0084 17.6744C21.8777 17.8891 21.659 18.0353 21.4106 18.0741L11.1241 19.6916L6.12557 20.4781L2.85472 20.9905C2.60692 21.0309 2.35402 20.959 2.16467 20.7941C1.97142 20.6293 1.86158 20.387 1.86493 20.1331C1.90191 19.6951 2.24153 19.3433 2.67793 19.291C4.023 19.0754 4.94143 17.8139 4.73351 16.4676L4.05627 12.1583C3.61272 9.31538 4.99317 6.49829 7.51162 5.10679C7.52643 5.10184 7.54094 5.09613 7.55515 5.08973C8.3725 4.64688 9.27161 4.37541 10.1974 4.2921C10.478 4.26743 10.7599 4.26202 11.0412 4.27588L11.1813 4.28274C11.4723 4.30035 11.7618 4.33683 12.0481 4.39207C12.0575 4.39207 12.066 4.39207 12.0754 4.39207C14.9651 5.01722 17.1645 7.36838 17.5958 10.2933L18.2329 14.3422C18.4446 15.6898 19.7085 16.6108 21.0562 16.3995C21.487 16.3154 21.9176 16.545 22.0879 16.9495C22.1711 17.1907 22.142 17.4567 22.0084 17.6744Z" fill="#FFFBF5"/>
</svg>
