<svg width="24" height="24" viewBox="0 0 24 24" fill="none" xmlns="http://www.w3.org/2000/svg">
<g opacity="0.5">
<g clip-path="url(#clip0_516:5994)">
<path d="M14.2533 1.50049C16.3532 1.50049 16.5032 2.76043 16.5032 3.00042V21.442L13.0646 18.0034C12.7723 17.7111 12.2986 17.7103 12.0053 18.0016C11.7105 18.2943 11.7097 18.7709 12.0034 19.0646L16.7207 23.7819C17.0132 24.0727 17.4856 24.0727 17.7781 23.7819L22.4992 19.0609C22.7912 18.7689 22.7912 18.2954 22.4992 18.0034C22.2072 17.7114 21.7337 17.7114 21.4417 18.0034L18.0031 21.442V3.00042C18.0031 1.96547 17.2532 0.000564575 14.2533 0.000564575H12.7534C12.3392 0.000564575 12.0034 0.336334 12.0034 0.750526C12.0034 1.16472 12.3392 1.50049 12.7534 1.50049H14.2533Z" fill="#1D1D1D"/>
<path d="M9.75351 22.4991C7.65361 22.4991 7.50362 21.2392 7.50362 20.9992L7.50362 2.55757L10.9422 5.99615C11.2342 6.28816 11.7076 6.28816 11.9996 5.99615C12.2917 5.70415 12.2917 5.23071 11.9996 4.93871L7.27863 0.217686C6.98609 -0.0731125 6.51371 -0.0731125 6.22118 0.217686L1.50366 4.93521C1.20972 5.22915 1.20972 5.70572 1.50366 5.99965C1.79779 6.29379 2.27475 6.29356 2.56861 5.99915L6.00369 2.55757L6.00369 20.9992C6.00369 22.0341 6.75365 23.999 9.75351 23.999H11.2534C11.6676 23.999 12.0034 23.6633 12.0034 23.2491C12.0034 22.8349 11.6676 22.4991 11.2534 22.4991H9.75351Z" fill="#1D1D1D"/>
</g>
</g>
<defs>
<clipPath id="clip0_516:5994">
<rect y="24" width="24" height="24" transform="rotate(-90 0 24)" fill="white"/>
</clipPath>
</defs>
</svg>
