<svg width="24" height="24" viewBox="0 0 24 24" fill="none" xmlns="http://www.w3.org/2000/svg">
<g clip-path="url(#clip0_516:6015)">
<path opacity="0.3" d="M22.4995 14.2531C22.4995 16.353 21.2396 16.503 20.9996 16.503H2.55798L5.99656 13.0644C6.28887 12.7721 6.28971 12.2984 5.99843 12.0051C5.7057 11.7102 5.22914 11.7094 4.93536 12.0032L0.218099 16.7204C-0.0726996 17.013 -0.0726996 17.4854 0.218099 17.7779L4.93912 22.4989C5.23112 22.7909 5.70456 22.7909 5.99657 22.4989C6.28857 22.2069 6.28857 21.7335 5.99657 21.4415L2.55798 18.0029H20.9996C22.0345 18.0029 23.9994 17.2529 23.9994 14.2531V12.7531C23.9994 12.3389 23.6637 12.0032 23.2495 12.0032C22.8353 12.0032 22.4995 12.3389 22.4995 12.7531V14.2531Z" fill="#1D1D1D"/>
<path d="M1.50066 9.75375C1.50066 7.65385 2.7606 7.50386 3.00059 7.50386H21.4422L18.0036 10.9424C17.7116 11.2344 17.7116 11.7079 18.0036 11.9999C18.2956 12.2919 18.769 12.2919 19.0611 11.9999L23.7821 7.27887C24.0729 6.98634 24.0729 6.51396 23.7821 6.22142L19.0645 1.5039C18.7706 1.20996 18.294 1.20996 18.0001 1.5039C17.706 1.79804 17.7062 2.27499 18.0006 2.56885L21.4422 6.00393H3.00059C1.96564 6.00393 0.000732422 6.7539 0.000732422 9.75375V11.2537C0.000732422 11.6679 0.336502 12.0036 0.750696 12.0036C1.16489 12.0036 1.50066 11.6679 1.50066 11.2537V9.75375Z" fill="url(#paint0_linear_516:6015)"/>
</g>
<defs>
<linearGradient id="paint0_linear_516:6015" x1="0.000732435" y1="7.6747" x2="24.0002" y2="7.6747" gradientUnits="userSpaceOnUse">
<stop stop-color="#EEA526"/>
<stop offset="0.510417" stop-color="#FFC002"/>
<stop offset="1" stop-color="#EEA526"/>
</linearGradient>
<clipPath id="clip0_516:6015">
<rect width="24" height="24" fill="white"/>
</clipPath>
</defs>
</svg>
