<svg width="16" height="16" viewBox="0 0 16 16" fill="none" xmlns="http://www.w3.org/2000/svg">
<path d="M9.41383 8.00032L15.7072 1.70765C15.8948 1.52006 16.0002 1.26562 16.0002 1.00032C16.0002 0.735019 15.8948 0.480584 15.7072 0.292987C15.5196 0.105391 15.2651 0 14.9998 0C14.7345 0 14.4801 0.105391 14.2925 0.292987L7.99983 6.58632L1.70717 0.292987C1.51957 0.105391 1.26513 0 0.999832 0C0.734531 0 0.480095 0.105391 0.292499 0.292987C0.104902 0.480584 -0.000488281 0.735019 -0.000488281 1.00032C-0.000488281 1.26562 0.104902 1.52006 0.292499 1.70765L6.58583 8.00032L0.292499 14.293C0.104902 14.4806 -0.000488281 14.735 -0.000488281 15.0003C-0.000488281 15.2656 0.104902 15.5201 0.292499 15.7077C0.480095 15.8953 0.734531 16.0006 0.999832 16.0006C1.26513 16.0006 1.51957 15.8953 1.70717 15.7077L7.99983 9.41432L14.2925 15.7077C14.4801 15.8953 14.7345 16.0006 14.9998 16.0006C15.2651 16.0006 15.5196 15.8953 15.7072 15.7077C15.8948 15.5201 16.0002 15.2656 16.0002 15.0003C16.0002 14.735 15.8948 14.4806 15.7072 14.293L9.41383 8.00032Z" fill="#D62B2B"/>
</svg>
