<svg width="16" height="16" viewBox="0 0 16 16" fill="none" xmlns="http://www.w3.org/2000/svg">
<path d="M8 15.1641C7.77222 15.1641 7.55261 15.0815 7.38147 14.9316C6.73511 14.3665 6.11194 13.8353 5.56213 13.3668L5.55933 13.3644C3.94739 11.9907 2.55542 10.8044 1.58691 9.63586C0.504272 8.32947 0 7.09082 0 5.73767C0 4.42297 0.450806 3.21008 1.26929 2.32227C2.09753 1.42395 3.23401 0.929199 4.46973 0.929199C5.39331 0.929199 6.23914 1.22119 6.98364 1.797C7.35938 2.08765 7.69995 2.44336 8 2.85828C8.30017 2.44336 8.64062 2.08765 9.01648 1.797C9.76099 1.22119 10.6068 0.929199 11.5304 0.929199C12.766 0.929199 13.9026 1.42395 14.7308 2.32227C15.5493 3.21008 16 4.42297 16 5.73767C16 7.09082 15.4958 8.32947 14.4132 9.63574C13.4447 10.8044 12.0529 11.9906 10.4412 13.3641C9.89038 13.8334 9.26624 14.3654 8.61841 14.9319C8.44739 15.0815 8.22766 15.1641 8 15.1641Z" fill="#EB4242"/>
</svg>
