<svg id="HORIZONTAL" xmlns="http://www.w3.org/2000/svg" viewBox="0 0 2253.55 383.73"><defs><style>.cls-1{fill:#f5b016;}</style></defs><polygon class="cls-1" points="605.71 282.44 542.13 182.47 605.43 75.7 556.67 75.7 493.49 182.35 556.91 282.44 605.71 282.44"/><rect class="cls-1" x="437.38" y="75.7" width="56.11" height="206.73"/><path class="cls-1" d="M710.13,972.06c0-19.08,7.37-29.06,21.91-29.65h3.09c.43,0,.86.05,1.27.09l6.44.57V901.79l-5.57-.33-2.2-.1h-3c-45.69,2.34-67.9,25.47-67.9,70.69v94.16h46Z" transform="translate(-43.23 -783.63)"/><polygon class="cls-1" points="768.71 124.44 722.88 124.58 722.88 282.91 768.71 282.91 768.71 124.44"/><path class="cls-1" d="M776.2,880.37a22.73,22.73,0,0,0,11.95,3.16,23,23,0,0,0,12.09-3.31,24.74,24.74,0,0,0,8.7-8.7,23.26,23.26,0,0,0,3.16-12.27,23.87,23.87,0,0,0-3.16-12.11,24.48,24.48,0,0,0-8.63-8.81l-.09-.05a23.58,23.58,0,0,0-12.07-3.14,22.67,22.67,0,0,0-11.95,3.16,25.6,25.6,0,0,0-8.8,8.76l-.11.19a23.62,23.62,0,0,0-3.1,12,24.09,24.09,0,0,0,3.33,12.3A24.53,24.53,0,0,0,776.2,880.37Z" transform="translate(-43.23 -783.63)"/><path class="cls-1" d="M1074.11,1004.21c0,14.72,2.54,27,7.53,36.31a46.85,46.85,0,0,0,22,21.08c6.46,3.13,16.69,4.56,22.84,5.17a9.48,9.48,0,0,0,8.3-3.46l26.09-32.26a1.2,1.2,0,0,0-.87-2c-8.89-.46-39.37-3.85-40-28.87V943.59H1143l10-38.65h-33.09V842.38l-45.83-.29v62.85h-22.76l-10.15,38.65h32.91Z" transform="translate(-43.23 -783.63)"/><path class="cls-1" d="M1299,1062.31a92.88,92.88,0,0,0,29.37-17.88,85.68,85.68,0,0,0,20.12-27.41,82.77,82.77,0,0,0-.16-67.44,85.1,85.1,0,0,0-20-27.26A88.59,88.59,0,0,0,1299,904.63a98.47,98.47,0,0,0-68.91,0,91.91,91.91,0,0,0-29.36,17.86,84.1,84.1,0,0,0-20,27.11,82.13,82.13,0,0,0,5.26,77.35,88.13,88.13,0,0,0,33.52,30.56,96.15,96.15,0,0,0,79.38,4.84Zm-73.38-100.93a46.23,46.23,0,0,1,16.7-15.86,44.68,44.68,0,0,1,44.45,0,46.31,46.31,0,0,1,16.7,15.86,40.64,40.64,0,0,1,6.29,21.93c0,12-4.54,22.52-13.53,31.17a45.09,45.09,0,0,1-63.36,0c-9-8.64-13.54-19.14-13.54-31.18A40.59,40.59,0,0,1,1225.64,961.38Z" transform="translate(-43.23 -783.63)"/><path class="cls-1" d="M1514,1063.42v-94c0-45.22-22.21-68.35-67.9-70.69h-3c-45.69,2.34-67.9,25.47-67.9,70.69v94h46v-94c0-19.08,7.37-29.06,21.91-29.65h3.07c14.53.59,21.9,10.57,21.9,29.65v94Z" transform="translate(-43.23 -783.63)"/><path class="cls-1" d="M1867.74,969.25c0-19.08,7.37-29.06,21.91-29.65h3.07c14.53.59,21.9,10.57,21.9,29.65v94h46v-94c0-45.22-22.21-68.35-67.9-70.69h-3c-45.69,2.34-67.9,25.47-67.9,70.69v94h46Z" transform="translate(-43.23 -783.63)"/><path class="cls-1" d="M2095.23,1020.54a50,50,0,0,1-27.52,7.73,43.52,43.52,0,0,1-23.78-6.57l-.12-.06a41.67,41.67,0,0,1-16-17.45,53.88,53.88,0,0,1-5.52-24.56,39.21,39.21,0,0,1,13.09-29.94c8.53-8,19.1-12,31.41-12a57.87,57.87,0,0,1,18.66,3l.05,0a50,50,0,0,1,9.21,4.35l4.63,2.8,23.44-31.91-5.33-3.4a90.65,90.65,0,0,0-19.7-9.33,98.83,98.83,0,0,0-31-5,101.91,101.91,0,0,0-36.27,6.37,85.4,85.4,0,0,0-28.66,17.8,83.83,83.83,0,0,0-18.74,27.89c-4.42,10.59-6.66,22.61-6.66,35.72a79.21,79.21,0,0,0,11,40.35c7.28,12.32,17.9,22.41,31.58,30s29.78,11.33,47.77,11.33a110,110,0,0,0,43.15-9.5,66.53,66.53,0,0,0,9.6-5.32l5.24-3.57-25-31.7Z" transform="translate(-43.23 -783.63)"/><path class="cls-1" d="M2296.59,980.25a82.49,82.49,0,0,0-26.13-57.81,86.41,86.41,0,0,0-28.07-17.68,89.78,89.78,0,0,0-32.9-6.21,91.06,91.06,0,0,0-33.07,6.21,85.58,85.58,0,0,0-27.91,17.84,84,84,0,0,0-19.21,27,84.19,84.19,0,0,0,5.1,76.9l0,0a84.78,84.78,0,0,0,32.09,30.53,87.5,87.5,0,0,0,43,11,89.85,89.85,0,0,0,32.84-6.18l.09,0a87.53,87.53,0,0,0,16.59-9.13l4.89-3.38-24.08-34.44-4.9,3.7a41.28,41.28,0,0,1-25.43,8.43c-11.6,0-21.87-4.34-30.52-12.87a42.6,42.6,0,0,1-12.36-24.57l-.41-2.9h110.16v-.31h20.41ZM2188,945.43l.13-.07a42.47,42.47,0,0,1,42.71,0l.09,0a50.31,50.31,0,0,1,11.77,10.41l3.56,4.18h-73.52l3.55-4.18A50.39,50.39,0,0,1,2188,945.43Z" transform="translate(-43.23 -783.63)"/><path class="cls-1" d="M1797,1024.85c-1,1.32-1.68,2.31-2.49,3.13-8.89,9-17.81,17.91-27.29,27.44-2.19-2-4.1-3.65-5.88-5.42q-51.4-51.36-102.78-102.75c-14.87-14.86-36.38-19-54.74-10.54-18.84,8.66-30.23,27.76-27.93,48.79,2.09,19.15,12.56,33,30.59,39.8,18.18,6.83,35.38,3.82,50-9.48,7.36-6.71,14-14.2,20.7-21.06l30.42,30.68c-22.28,26.65-48.23,47.23-86.12,46.48-45.32-.91-83.15-36.23-88.19-81.21a90.94,90.94,0,0,1,92.82-101.44c24.19.62,45.18,9.46,62.36,26.51q53.35,53,106.35,106.28A34.41,34.41,0,0,1,1797,1024.85Z" transform="translate(-43.23 -783.63)"/><path class="cls-1" d="M1795.6,936.49l-28,27.84-28.48-28.52,27.73-28.09Z" transform="translate(-43.23 -783.63)"/><path class="cls-1" d="M887,1130.44H844c-.15-2.59-.4-4.91-.4-7.22,0-47.77-.1-95.54,0-143.31.1-37.68,15.64-66.88,49-85.31,41.79-23.12,94.83-8.88,120.79,31.83,25.44,39.9,15.86,93.54-21.73,122a92.12,92.12,0,0,1-56.94,19.1c-9,0-18.09,0-27.52,0v-43.38c9.32,0,18.34.11,27.36,0,17.22-.25,31.16-7.09,41.12-21.31,11.71-16.68,11.41-38.53-.56-55.32a48.17,48.17,0,0,0-52.21-18.61c-19.68,5.53-34.35,22.57-35.21,42.68-.77,18-.23,36-.23,54q0,50.42,0,100.82A40,40,0,0,1,887,1130.44Z" transform="translate(-43.23 -783.63)"/><path class="cls-1" d="M43.24,802c.06-11.21,7.85-18.31,20-18.37,20.64-.09,42,.13,62.6,0,7.33,0,12.79,2.94,17.7,7.62,18.32,17.47,59.14,57.28,61.52,60.22,3.32-2.94,46.09-42.14,65.43-60.24,4.93-4.61,10.45-6.59,17.37-6.53,34.81.3,69.62.35,104.42.57,14.15.09,20.42,6.2,20.33,19.6-.23,31.88-.6,63.76-.68,95.64,0,7.2-2.61,12.67-8,17.91-21.17,20.5-43,42.15-63.84,62.9,0,0,2.11,1.79,4.22,3.82,19.38,18.69,38.69,37.45,58.24,56a18.65,18.65,0,0,1,6.23,15.06c-.79,31.87.05,65.09-.58,97-.22,11.31-4.86,14.38-16.89,14.18-33.84-.55-67.68-1.27-101.52-1.73a19.28,19.28,0,0,1-14.44-6c-20.85-20.81-66.57-64.18-68.65-66.59-6.43,5.63-75.85,66.23-75.85,66.23,19.34-19,48.41-54.08,67.68-73.19,6.81-6.76,9-6.7,16.42-.13,23.15,20.55,68.84,55.57,68.84,55.57s6.11,4,9.18,4c29.52-.35,90.4.58,92.3.27,0,0-1.06-57.17-1.29-81.86a13.84,13.84,0,0,0-5.08-11.14c-22.33-20-44.48-40.29-66.68-60.48-11.36-10.32-11.43-16.72-.52-27.15q32.48-31.07,64.77-62.27c2.1-2,4.08-5.28,4.07-8,0-24.91-.49-49.83-.85-74.75a23,23,0,0,0-.5-3c-2.23-.14-4.31-.39-6.38-.38-24.49.08-49,.34-73.45.19A16.28,16.28,0,0,0,286.9,822q-32.4,31.13-65.23,61.86c-10.38,9.74-20.33,9.73-30.64.2q-33-30.52-65.9-61.23c-3.46-3.25-6.94-4.85-11.95-4.68-10.3.34-25.33,0-36.07,0l2.52,277.22c10.24.78,21,2.33,29.9-6.25,26.56-25.62,54.19-50.26,81.42-75.27,11-10.11,20-10,30.84.28,27.1,25.76,54.32,51.41,81.11,77.46,5.43,5.28,10.8,8.23,18.66,7.39,4.21-.45,8.53-.08,14.07-.08,0-7.49.36-14.39-.21-21.22-.19-2.3-2.39-4.75-4.28-6.59q-41.55-40.17-83.28-80.2c-10.18-9.79-10.08-15.31.43-24.8,29.17-26.36,58.43-52.64,87.4-79.19a15.93,15.93,0,0,0,4.62-9.74c.67-8,.21-16,.21-25.42-7.69,0-22.44,1.1-29.23,1.75a20.2,20.2,0,0,0-10.21,3.86c-.26.19-.5.38-.7.56-29.68,26.19-55.94,48.42-85.58,74.65-6.85,6.06-8.07,6.06-14.49-.38C177.53,909.41,129,862,129,862c24.13,21,48.26,38.71,74.06,61.19a5.92,5.92,0,0,0,8.18-.37c13.3-14,57.69-55.53,80.34-78.28,5.79-5.82,11.77-8.93,20.59-8.56,11.24.48,22.54-.47,33.82-.68,9.78-.18,13.1,2.78,13.38,11.72.36,11.67.36,23.35,1.1,35,.4,6.4-2,11.05-6.65,15.53-26.13,25.08-81.26,78.8-84,81.55,3.56,2.8,61.7,55,87.64,78.32,5,4.52,7.51,9.44,7.4,16-.21,12.35.21,24.7.25,37,0,11.2-5.5,16.44-17.52,16.71-11.51.26-23.07-.74-34.54.07-10.69.75-18.63-2.5-26.19-9.66-24.11-22.84-77.79-70.89-79.81-72.67-13,11.84-25.76,23.28-38.29,35q-22.42,20.92-44.45,42.23a25.71,25.71,0,0,1-19.79,7.71c-13.43-.32-25.54.12-39,0-12.33-.09-19.8-6.89-20-18.34C45.32,1098.06,43.07,829.86,43.24,802Z" transform="translate(-43.23 -783.63)"/></svg>