<svg width="24" height="18" viewBox="0 0 24 18" fill="none" xmlns="http://www.w3.org/2000/svg">
<path d="M5.38782 9.70015L5.48498 9.6323L5.40177 9.54793C4.78285 8.92043 4.38571 8.05465 4.38571 7.09565C4.38571 5.19633 5.88699 3.64783 7.71429 3.64783C9.54158 3.64783 11.0429 5.19633 11.0429 7.09565C11.0429 8.05552 10.6457 8.92042 10.0268 9.54793L9.94359 9.6323L10.0407 9.70015C10.6106 10.0981 11.0782 10.6345 11.4024 11.2628C11.5986 11.643 11.7386 12.0498 11.8192 12.4697C11.8942 12.8605 11.566 13.2043 11.1413 13.2043C10.7288 13.2043 10.3873 12.8585 10.2516 12.4315C9.90183 11.3315 8.90514 10.5435 7.71429 10.5435C6.52344 10.5435 5.52674 11.3315 5.17701 12.4315C5.04124 12.8585 4.69977 13.2043 4.28723 13.2043C3.86253 13.2043 3.53441 12.8605 3.60938 12.4697C3.68995 12.0498 3.83 11.643 4.02618 11.2628C4.35037 10.6345 4.81792 10.0981 5.38782 9.70015ZM0.1 2.66087C0.1 1.2538 1.21985 0.1 2.57143 0.1H21.4286C22.7801 0.1 23.9 1.2538 23.9 2.66087V15.0783C23.9 16.4853 22.7801 17.6391 21.4286 17.6391H2.57143C1.21985 17.6391 0.1 16.4853 0.1 15.0783V2.66087ZM21.4286 1.67391H2.57143C2.02786 1.67391 1.61429 2.10687 1.61429 2.66087V15.0783C1.61429 15.6323 2.02786 16.0652 2.57143 16.0652H21.4286C21.9721 16.0652 22.3857 15.6323 22.3857 15.0783V2.66087C22.3857 2.10687 21.9721 1.67391 21.4286 1.67391ZM13.8143 5.32174C13.8143 4.88711 14.1666 4.53478 14.6012 4.53478H19.6845C20.1191 4.53478 20.4714 4.88712 20.4714 5.32174C20.4714 5.75636 20.1191 6.1087 19.6845 6.1087H14.6012C14.1666 6.1087 13.8143 5.75636 13.8143 5.32174ZM9.52857 7.09565C9.52857 6.05294 8.73014 5.22174 7.71429 5.22174C6.69843 5.22174 5.9 6.05294 5.9 7.09565C5.9 8.13836 6.69843 8.96957 7.71429 8.96957C8.73014 8.96957 9.52857 8.13836 9.52857 7.09565ZM13.8143 8.86957C13.8143 8.43494 14.1666 8.08261 14.6012 8.08261H19.6845C20.1191 8.08261 20.4714 8.43494 20.4714 8.86957C20.4714 9.30419 20.1191 9.65652 19.6845 9.65652H14.6012C14.1666 9.65652 13.8143 9.30419 13.8143 8.86957ZM13.8143 12.4174C13.8143 11.9828 14.1666 11.6304 14.6012 11.6304H17.113C17.5477 11.6304 17.9 11.9828 17.9 12.4174C17.9 12.852 17.5477 13.2043 17.113 13.2043H14.6012C14.1666 13.2043 13.8143 12.852 13.8143 12.4174Z" fill="#1D1D1D" stroke="#FFFBF5" stroke-width="0.2"/>
</svg>
