<svg width="22" height="20" viewBox="0 0 22 20" fill="none" xmlns="http://www.w3.org/2000/svg">
<g opacity="0.5">
<path d="M20.9522 7.84907C19.5736 5.74407 16.4376 2.2124 10.9336 2.2124C5.42956 2.2124 2.29356 5.74407 0.914891 7.84907C0.488694 8.49532 0.262939 9.2401 0.262939 9.9999C0.262939 10.7597 0.488694 11.5045 0.914891 12.1507C2.29356 14.2557 5.42956 17.7874 10.9336 17.7874C16.4376 17.7874 19.5736 14.2557 20.9522 12.1507C21.3784 11.5045 21.6042 10.7597 21.6042 9.9999C21.6042 9.2401 21.3784 8.49532 20.9522 7.84907ZM19.4367 11.2782C18.2527 13.0832 15.5727 16.1207 10.9336 16.1207C6.29445 16.1207 3.61445 13.0832 2.43045 11.2782C2.17723 10.8941 2.04311 10.4515 2.04311 9.9999C2.04311 9.54834 2.17723 9.1057 2.43045 8.72157C3.61445 6.91657 6.29445 3.87907 10.9336 3.87907C15.5727 3.87907 18.2527 6.91324 19.4367 8.72157C19.6899 9.1057 19.824 9.54834 19.824 9.9999C19.824 10.4515 19.6899 10.8941 19.4367 11.2782Z" fill="#1D1D1D"/>
<path d="M10.9335 5.83301C10.0544 5.83301 9.19514 6.07738 8.46426 6.53522C7.73337 6.99306 7.16372 7.6438 6.82733 8.40516C6.49094 9.16652 6.40292 10.0043 6.57441 10.8126C6.7459 11.6208 7.1692 12.3632 7.79076 12.946C8.41233 13.5287 9.20426 13.9255 10.0664 14.0863C10.9285 14.2471 11.8222 14.1645 12.6343 13.8492C13.4464 13.5338 14.1405 12.9998 14.6289 12.3146C15.1172 11.6293 15.3779 10.8238 15.3779 9.99967C15.3765 8.89501 14.9078 7.83597 14.0746 7.05486C13.2414 6.27374 12.1118 5.83433 10.9335 5.83301ZM10.9335 12.4997C10.406 12.4997 9.89047 12.3531 9.45194 12.0783C9.01341 11.8036 8.67162 11.4132 8.46978 10.9564C8.26795 10.4996 8.21514 9.9969 8.31803 9.51195C8.42093 9.027 8.6749 8.58154 9.04784 8.23191C9.42078 7.88228 9.89594 7.64417 10.4132 7.54771C10.9305 7.45125 11.4667 7.50076 11.954 7.68998C12.4412 7.87919 12.8577 8.19963 13.1507 8.61075C13.4437 9.02187 13.6001 9.50522 13.6001 9.99967C13.6001 10.6627 13.3192 11.2986 12.8191 11.7674C12.319 12.2363 11.6407 12.4997 10.9335 12.4997Z" fill="#1D1D1D"/>
</g>
</svg>
