<svg width="24" height="24" viewBox="0 0 24 24" fill="none" xmlns="http://www.w3.org/2000/svg">
<g opacity="0.7">
<path d="M19.6317 3.36826C17.4597 1.19622 14.5717 0 11.5 0C8.42812 0 5.54031 1.19622 3.36826 3.36826C1.19622 5.54031 0 8.42812 0 11.5C0 14.5717 1.19622 17.4597 3.36826 19.6317C5.54031 21.8038 8.42812 23 11.5 23C14.5717 23 17.4597 21.8038 19.6317 19.6317C21.8038 17.4597 23 14.5717 23 11.5C23 8.42812 21.8038 5.54031 19.6317 3.36826ZM5.76527 19.8728C6.24625 17.1035 8.64606 15.0608 11.5 15.0608C14.3541 15.0608 16.7538 17.1035 17.2347 19.8728C15.6019 20.9947 13.6264 21.6523 11.5 21.6523C9.37358 21.6523 7.39807 20.9947 5.76527 19.8728ZM7.84343 10.0565C7.84343 8.04014 9.48378 6.39996 11.5 6.39996C13.5162 6.39996 15.1566 8.04031 15.1566 10.0565C15.1566 12.0728 13.5162 13.7131 11.5 13.7131C9.48378 13.7131 7.84343 12.0728 7.84343 10.0565ZM18.402 18.9381C18.0393 17.6489 17.319 16.4791 16.3093 15.5654C15.6898 15.0048 14.9848 14.5624 14.2267 14.2506C15.5968 13.3569 16.5044 11.8108 16.5044 10.0565C16.5044 7.29717 14.2594 5.05231 11.5 5.05231C8.74064 5.05231 6.49577 7.29717 6.49577 10.0565C6.49577 11.8108 7.40334 13.3569 8.77328 14.2506C8.0154 14.5624 7.31016 15.0046 6.69073 15.5653C5.68121 16.479 4.96071 17.6487 4.598 18.9379C2.6002 17.0826 1.34766 14.435 1.34766 11.5C1.34766 5.90196 5.90196 1.34766 11.5 1.34766C17.098 1.34766 21.6523 5.90196 21.6523 11.5C21.6523 14.4352 20.3998 17.0828 18.402 18.9381Z" fill="#1D1D1D"/>
<circle cx="19" cy="19" r="4.5" fill="#FFFBF5" stroke="#1D1D1D"/>
<path d="M20.9365 18.5778H19.3873V17.0287C19.3873 16.8149 19.2142 16.6414 19 16.6414C18.7858 16.6414 18.6127 16.8149 18.6127 17.0287V18.5778H17.0635C16.8493 18.5778 16.6762 18.7514 16.6762 18.9651C16.6762 19.1789 16.8493 19.3525 17.0635 19.3525H18.6127V20.9016C18.6127 21.1154 18.7858 21.2889 19 21.2889C19.2142 21.2889 19.3873 21.1154 19.3873 20.9016V19.3525H20.9365C21.1507 19.3525 21.3238 19.1789 21.3238 18.9651C21.3238 18.7514 21.1507 18.5778 20.9365 18.5778Z" fill="#1D1D1D"/>
</g>
</svg>
