<svg width="40" height="36" viewBox="0 0 40 36" fill="none" xmlns="http://www.w3.org/2000/svg">
<path d="M36.4844 9.79625H34.0679C33.2765 7.91367 32.0976 6.17773 30.6044 4.73031C28.2573 2.45523 25.2187 0.972808 22.0483 0.556089C16.7947 -0.134458 11.6455 1.87765 8.27477 5.93843C7.30742 7.10382 6.52024 8.40796 5.93914 9.79625H3.51562C1.57711 9.79625 0 11.3734 0 13.3119V17.9994C0 19.9379 1.57711 21.515 3.51562 21.515H6.7005C7.49749 21.515 8.06198 20.7366 7.81438 19.9791C6.35141 15.503 7.17656 10.9311 10.0782 7.43539C12.9315 3.99789 17.2923 2.29492 21.7428 2.87984C27.3174 3.61257 31.8313 7.99054 32.7194 13.5263C33.3255 17.3037 32.2681 21.1208 29.8184 23.9989C27.363 26.8836 23.7909 28.541 20.018 28.5462C18.0696 28.5489 16.4845 30.1261 16.4845 32.0619C16.4845 34.0004 18.0616 35.5775 20.0001 35.5775C21.9386 35.5775 23.5157 34.0004 23.5157 32.0619V30.4787C26.6375 29.7373 29.4755 28.0177 31.6032 25.518C32.6366 24.3039 33.4595 22.9623 34.063 21.5149H36.4844C38.4229 21.5149 40 19.9378 40 17.9993V13.3118C40 11.3734 38.4229 9.79625 36.4844 9.79625ZM5.16133 19.1712H3.51562C2.86945 19.1712 2.34375 18.6455 2.34375 17.9994V13.3119C2.34375 12.6657 2.86945 12.14 3.51562 12.14H5.17531C5.13359 12.3156 5.095 12.4922 5.05969 12.6692C4.63195 14.8123 4.66672 16.9931 5.16133 19.1712ZM21.1719 32.0619C21.1719 32.708 20.6462 33.2337 20 33.2337C19.3538 33.2337 18.8281 32.708 18.8281 32.0619C18.8281 31.4166 19.3634 30.8909 20.0212 30.89C20.4066 30.8894 20.7907 30.8743 21.1719 30.845V32.0619ZM37.6562 17.9994C37.6562 18.6455 37.1305 19.1712 36.4844 19.1712H34.8239C35.2892 17.2142 35.3606 15.1941 35.0335 13.155C34.9789 12.8145 34.9111 12.476 34.832 12.14H36.4844C37.1305 12.14 37.6562 12.6657 37.6562 13.3119V17.9994Z" fill="#1D1D1D"/>
<path d="M14.1406 15.6558C14.1406 15.0086 14.6653 14.4839 15.3125 14.4839C15.9597 14.4839 16.4844 15.0086 16.4844 15.6558C16.4844 16.303 15.9597 16.8276 15.3125 16.8276C14.6653 16.8276 14.1406 16.303 14.1406 15.6558Z" fill="#1D1D1D"/>
<path d="M18.8281 15.6558C18.8281 15.0086 19.3528 14.4839 20 14.4839C20.6472 14.4839 21.1719 15.0086 21.1719 15.6558C21.1719 16.303 20.6472 16.8276 20 16.8276C19.3528 16.8276 18.8281 16.303 18.8281 15.6558Z" fill="#1D1D1D"/>
<path d="M23.5156 15.6558C23.5156 15.0086 24.0403 14.4839 24.6875 14.4839C25.3347 14.4839 25.8594 15.0086 25.8594 15.6558C25.8594 16.303 25.3347 16.8276 24.6875 16.8276C24.0403 16.8276 23.5156 16.303 23.5156 15.6558Z" fill="#1D1D1D"/>
<path d="M10.5779 23.5758C10.009 23.8843 9.45312 24.3836 9.45312 25.0308C9.45312 25.678 9.97779 26.2026 10.625 26.2026H20C25.8155 26.2026 30.5469 21.4713 30.5469 15.6558C30.5469 9.84021 25.8155 5.10889 20 5.10889C14.1845 5.10889 9.45312 9.84021 9.45312 15.6558C9.45312 18.026 10.2491 20.3177 11.7054 22.1705C11.5307 22.7813 11.1191 23.2823 10.5779 23.5758ZM20 7.45264C24.5232 7.45264 28.2031 11.1326 28.2031 15.6558C28.2031 20.179 24.5232 23.8589 20 23.8589H13.5138C13.8496 23.2778 14.0587 22.6272 14.1209 21.947L14.1277 21.8736C14.1527 21.6002 14.0643 21.3285 13.8831 21.1222L13.8344 21.0668C12.5205 19.5708 11.7969 17.6492 11.7969 15.6558C11.7969 11.1326 15.4768 7.45264 20 7.45264Z" fill="#1D1D1D"/>
</svg>
