<svg width="24" height="24" viewBox="0 0 24 24" fill="none" xmlns="http://www.w3.org/2000/svg">
<g opacity="0.7" clip-path="url(#clip0_410:4577)">
<path d="M20.6418 12.925H20.159H7.1252C6.61436 12.925 6.2002 12.5108 6.2002 12C6.2002 11.4892 6.61436 11.075 7.1252 11.075H20.159H20.6418L20.3004 10.7336L18.8459 9.27905C18.4846 8.91781 18.4846 8.33217 18.8459 7.97093L18.8459 7.97092C19.207 7.6097 19.7928 7.60968 20.154 7.97093C20.154 7.97093 20.154 7.97093 20.154 7.97093L23.5288 11.3458L23.5288 11.3458C23.5503 11.3673 23.5708 11.39 23.5902 11.4137L23.5904 11.414C23.5942 11.4186 23.5954 11.4203 23.5977 11.4236C23.6002 11.4272 23.604 11.4326 23.6141 11.446C23.6141 11.4461 23.6142 11.4461 23.6142 11.4462L20.6418 12.925ZM20.6418 12.925L20.3004 13.2664L20.6418 12.925ZM23.8913 11.5202C23.8892 11.5158 23.8871 11.5113 23.885 11.5068C23.8793 11.4944 23.8735 11.4821 23.8671 11.47C23.861 11.4586 23.8543 11.4477 23.8476 11.4367C23.845 11.4323 23.8423 11.428 23.8397 11.4236C23.8371 11.4192 23.8345 11.4149 23.832 11.4105C23.8251 11.3988 23.8182 11.387 23.8105 11.3756L23.8913 11.5202ZM23.8913 11.5202C23.8932 11.5243 23.8951 11.5283 23.8971 11.5323C23.903 11.5446 23.909 11.557 23.9142 11.5697M23.8913 11.5202L23.76 11.7314C23.7575 11.7233 23.755 11.7165 23.7507 11.7048C23.749 11.7001 23.7469 11.6945 23.7444 11.6876L23.744 11.6865C23.7417 11.6799 23.7398 11.6745 23.7382 11.6699C23.7344 11.6593 23.7323 11.653 23.7292 11.6457L23.9142 11.5697M23.9325 11.6195C23.9311 11.6155 23.9297 11.6116 23.9283 11.6077C23.9239 11.595 23.9194 11.5822 23.9142 11.5697M23.9325 11.6195L23.6267 11.4626C23.6344 11.4729 23.6391 11.479 23.6442 11.4867L23.6443 11.4869C23.6486 11.4932 23.6515 11.4981 23.6565 11.5067C23.6594 11.5117 23.663 11.5179 23.668 11.5262C23.6733 11.5351 23.6771 11.5412 23.68 11.5461C23.6846 11.5536 23.6872 11.5578 23.6906 11.5641L23.6908 11.5645C23.6945 11.5713 23.6969 11.5766 23.7012 11.5858C23.7035 11.5909 23.7065 11.5973 23.7105 11.6058L23.7106 11.606C23.714 11.6132 23.7167 11.6188 23.719 11.6234C23.7237 11.6333 23.7265 11.6391 23.7295 11.6463L23.9142 11.5697M23.9325 11.6195C23.9339 11.6235 23.9354 11.6276 23.9369 11.6316C23.942 11.6455 23.9471 11.6594 23.9514 11.6736M23.9325 11.6195L23.9514 11.6736M23.9514 11.6736C23.9551 11.6857 23.958 11.698 23.961 11.7102C23.9621 11.7148 23.9632 11.7194 23.9643 11.724M23.9514 11.6736L23.9643 11.724M23.9643 11.724C23.9655 11.7287 23.9667 11.7334 23.968 11.7381C23.9716 11.7521 23.9752 11.7661 23.9781 11.7803C23.981 11.7953 23.983 11.8103 23.9851 11.8254C23.9857 11.8299 23.9863 11.8345 23.987 11.839M23.9643 11.724L23.987 11.839M23.987 11.839C23.9878 11.8447 23.9887 11.8504 23.9896 11.8562M23.987 11.839L23.9896 11.8562M23.9644 12.2756C23.9656 12.2711 23.9667 12.2666 23.9679 12.2621C23.9716 12.2482 23.9752 12.2342 23.9781 12.2199C23.981 12.2051 23.983 12.1902 23.9851 12.1754C23.9857 12.1705 23.9864 12.1656 23.9871 12.1607M23.9644 12.2756L23.7952 12.0914L23.7952 12.0914C23.7946 12.0977 23.7942 12.1002 23.7934 12.1049C23.7925 12.1097 23.7913 12.1168 23.7891 12.1329L23.9871 12.1607M23.9644 12.2756C23.9632 12.2804 23.962 12.2853 23.9609 12.2901C23.9579 12.3023 23.9549 12.3146 23.9513 12.3267M23.9644 12.2756L23.9327 12.38M23.9871 12.1607C23.988 12.1547 23.9889 12.1489 23.9898 12.143C23.9915 12.1324 23.9932 12.1218 23.9943 12.1111L19.5 16.3001V16.5001L19.5 16.3001C19.737 16.3001 19.9733 16.2098 20.1541 16.0291M23.9871 12.1607L23.7892 12.1322C23.7879 12.1407 23.787 12.1475 23.7862 12.1532C23.7846 12.1652 23.7836 12.1723 23.7819 12.181L23.7819 12.181C23.7803 12.189 23.7786 12.1954 23.7757 12.2066C23.7743 12.2118 23.7727 12.2182 23.7706 12.2262L23.7704 12.2269C23.768 12.2366 23.7663 12.2435 23.765 12.2489C23.763 12.2574 23.7618 12.2622 23.7598 12.2688L23.9513 12.3267M23.9513 12.3267L23.7599 12.2687C23.7576 12.2763 23.7556 12.2818 23.7522 12.2911C23.7501 12.2966 23.7476 12.3034 23.7443 12.3129M23.9513 12.3267C23.9473 12.3397 23.9427 12.3525 23.938 12.3652C23.9362 12.3701 23.9344 12.375 23.9327 12.38M23.7443 12.3129L23.9327 12.38M23.7443 12.3129C23.7443 12.3128 23.7444 12.3126 23.7444 12.3125L23.9327 12.38M23.7443 12.3129C23.7412 12.3216 23.7389 12.3279 23.7371 12.3331C23.734 12.3421 23.7322 12.3472 23.7294 12.354L23.7293 12.3541C23.7265 12.3609 23.7241 12.366 23.7197 12.3751C23.7174 12.3798 23.7146 12.3856 23.711 12.3933L23.7108 12.3937C23.7072 12.4012 23.7045 12.4071 23.7022 12.4121C23.6973 12.4225 23.6944 12.4288 23.6904 12.4363L23.8669 12.5304L23.6907 12.4358C23.6874 12.4419 23.6849 12.4461 23.6804 12.4534C23.6775 12.4581 23.6739 12.464 23.6687 12.4727L23.6683 12.4733C23.6644 12.48 23.6612 12.4854 23.6585 12.4899C23.6524 12.5004 23.6489 12.5064 23.6442 12.5135L23.6439 12.5138C23.6394 12.5206 23.6358 12.5253 23.6296 12.5336C23.6258 12.5385 23.6212 12.5446 23.6149 12.553L23.7754 12.6724L23.6155 12.5522C23.6059 12.565 23.6016 12.5711 23.5988 12.5751C23.5959 12.5792 23.5944 12.5813 23.5905 12.586L23.5903 12.5862C23.5721 12.6084 23.5525 12.6301 23.5316 12.6512L23.6739 12.7918L23.5324 12.6504C23.5294 12.6534 23.5269 12.6561 23.525 12.6582M23.9327 12.38C23.931 12.3846 23.9294 12.3892 23.9278 12.3938C23.9235 12.4061 23.9192 12.4184 23.9142 12.4306L23.9327 12.38ZM23.525 12.6582L23.5291 12.6541C23.5257 12.6574 23.5232 12.6602 23.5218 12.6618L23.5234 12.6599C23.5239 12.6594 23.5244 12.6588 23.525 12.6582ZM23.525 12.6582L20.1541 16.0291M20.1541 16.0291L20.2952 16.1702L20.1541 16.0292L20.1541 16.0291ZM23.9896 11.8562C23.9914 11.8671 23.9932 11.878 23.9943 11.8892L23.9896 11.8562ZM23.7652 11.7514C23.7631 11.7427 23.7619 11.7379 23.76 11.7314L23.7952 11.9089L23.7952 11.9085C23.7946 11.9025 23.7942 11.9 23.7933 11.8951C23.7925 11.8902 23.7912 11.8829 23.789 11.8674L23.789 11.8671C23.7879 11.8595 23.787 11.8533 23.7863 11.848C23.7846 11.8353 23.7835 11.8277 23.7818 11.819L23.7818 11.819C23.7802 11.8109 23.7786 11.8046 23.7758 11.7937C23.7743 11.7883 23.7726 11.7816 23.7704 11.7731L23.7702 11.7723C23.768 11.7632 23.7664 11.7566 23.7652 11.7514ZM23.8104 12.6248C23.8024 12.6366 23.7938 12.648 23.7852 12.6593C23.7819 12.6637 23.7787 12.668 23.7754 12.6724C23.7719 12.6771 23.7684 12.6819 23.765 12.6866C23.7585 12.6956 23.752 12.7046 23.7449 12.7132L23.8104 12.6248ZM23.7998 12.0013C23.7998 12.0009 23.7998 12.0005 23.7998 12.0001C23.7998 11.9997 23.7998 11.9993 23.7998 11.9988V12.0013ZM23.8003 11.9876C23.8003 11.9874 23.8003 11.9876 23.8003 11.9881L23.8003 11.9876ZM18.8459 14.7211L18.7045 14.5797L18.8459 14.7211C18.8459 14.7211 18.8459 14.7211 18.8459 14.7211ZM23.8003 12.0126L23.8003 12.0121L23.8003 12.0126Z" fill="#1D1D1D" stroke="#FFFBF5" stroke-width="0.4"/>
<path d="M14.2498 3.92499H14.4498V4.12499V7.49996C14.4498 8.0108 14.864 8.42496 15.3748 8.42496C15.8857 8.42496 16.2998 8.0108 16.2998 7.49996V2.99999C16.2998 2.48915 15.8857 2.075 15.3748 2.075H1.12493C0.614088 2.075 0.199934 2.48915 0.199934 2.99999V21C0.199934 21.5108 0.614088 21.9249 1.12493 21.9249H15.3748C15.8857 21.9249 16.2998 21.5108 16.2998 21V16.4999C16.2998 15.9891 15.8857 15.5749 15.3748 15.5749C14.864 15.5749 14.4498 15.9891 14.4498 16.4999V19.875V20.075H14.2498H2.24992H2.04992V19.875V4.12499V3.92499H2.24992H14.2498Z" fill="#1D1D1D" stroke="#FFFBF5" stroke-width="0.4"/>
</g>
<defs>
<clipPath id="clip0_410:4577">
<rect width="24" height="24" fill="white" transform="matrix(-1 0 0 1 24 0)"/>
</clipPath>
</defs>
</svg>
