<svg width="154" height="130" viewBox="0 0 154 130" fill="none" xmlns="http://www.w3.org/2000/svg">
<path d="M130.062 72.9258L131.768 71.2187H129.354H45.7208C42.2864 71.2187 39.5021 68.4344 39.5021 65C39.5021 61.5657 42.2864 58.7813 45.7208 58.7813H129.354H131.769L130.061 57.0742L120.728 47.7409C118.3 45.3123 118.3 41.3751 120.728 38.9465L120.728 38.9464C123.156 36.5179 127.094 36.5178 129.523 38.9465L151.178 60.6021L151.885 59.895L151.178 60.6021C151.323 60.7468 151.46 60.8991 151.591 61.0588L151.592 61.06C151.62 61.0942 151.632 61.1114 151.652 61.1399C151.671 61.1668 151.697 61.2039 151.751 61.2748C151.78 61.3131 151.804 61.3456 151.826 61.3742C151.879 61.4444 151.916 61.4921 151.953 61.5487L151.954 61.5497C151.986 61.5975 152.01 61.6377 152.046 61.6991C152.064 61.7305 152.086 61.7675 152.113 61.8138C152.114 61.8141 152.114 61.8143 152.114 61.8145L152.972 61.3012C152.989 61.3294 153.006 61.3575 153.023 61.3855C153.066 61.4559 153.109 61.5261 153.148 61.5991L130.062 72.9258ZM130.062 72.9258L120.728 82.26C118.3 84.6887 118.3 88.6259 120.729 91.0546C121.942 92.2684 123.533 92.8753 125.126 92.8758L130.062 72.9258ZM154 64.9899C153.999 64.756 153.987 64.5217 153.964 64.2888C153.957 64.2173 153.946 64.1472 153.934 64.077C153.928 64.0403 153.923 64.0037 153.917 63.9668L151.886 70.1046C151.89 70.1008 151.894 70.0967 151.897 70.0926C151.901 70.0885 151.904 70.0844 151.908 70.0806C152.067 69.9193 152.22 69.7514 152.364 69.5762C152.409 69.5209 152.451 69.4634 152.493 69.4059C152.515 69.3753 152.537 69.3447 152.56 69.3144C152.581 69.2864 152.602 69.2585 152.623 69.2307C152.678 69.1578 152.733 69.0851 152.784 69.0088C152.837 68.9294 152.885 68.8477 152.933 68.7659C152.947 68.7412 152.962 68.7164 152.976 68.6917C152.993 68.6643 153.009 68.6371 153.026 68.6099C153.067 68.5419 153.109 68.4739 153.147 68.4034C153.19 68.3222 153.229 68.2393 153.267 68.1565C153.28 68.1289 153.293 68.1013 153.306 68.0738C153.318 68.0475 153.331 68.0213 153.343 67.9952C153.38 67.9184 153.417 67.8419 153.45 67.7629C153.482 67.685 153.51 67.6059 153.538 67.5266C153.548 67.4971 153.558 67.4675 153.569 67.438M154 64.9899C154 64.9916 154 64.9934 154 64.9952C154 64.997 154 64.9988 154 65.0005C154 65.0022 154 65.004 154 65.0058C154 65.0076 154 65.0094 154 65.0111M154 64.9899H153L153 65.0111H153C153 65.0148 153 65.0183 153 65.0215L153.001 65.0433L153.001 65.0487L153 65.0295C153 65.0242 153 65.0181 153 65.0111H154M154 64.9899L153 64.992C153 64.9947 153 64.9976 153 65.0005C153 65.0035 153 65.0063 153 65.0091L154 65.0111M154 65.0111C153.999 65.2455 153.987 65.4794 153.964 65.7128C153.957 65.7818 153.946 65.8496 153.936 65.9175C153.93 65.9552 153.924 65.9929 153.918 66.0309M153.918 66.0309C153.914 66.0623 153.909 66.0938 153.905 66.1252C153.892 66.2208 153.879 66.3162 153.86 66.4111C153.842 66.5028 153.818 66.5924 153.795 66.682C153.787 66.7108 153.78 66.7397 153.772 66.7686C153.765 66.7995 153.757 66.8305 153.75 66.8615C153.731 66.9401 153.712 67.0187 153.688 67.0963M153.918 66.0309L152.928 65.892C152.928 65.8914 152.928 65.8908 152.928 65.8902C152.928 65.8896 152.928 65.889 152.928 65.8884L153.918 66.0309ZM153.688 67.0963C153.663 67.18 153.633 67.2616 153.603 67.3432C153.592 67.3748 153.58 67.4064 153.569 67.438M153.688 67.0963L152.731 66.807C152.731 66.8069 152.731 66.8067 152.731 66.8065L153.688 67.0963ZM153.569 67.438L152.627 67.1027C152.627 67.1024 152.627 67.102 152.627 67.1017M153.569 67.438L152.627 67.1006C152.627 67.101 152.627 67.1013 152.627 67.1017M129.523 91.054L151.158 69.4183C151.168 69.4078 151.181 69.3937 151.197 69.3777C151.336 69.2364 151.468 69.0911 151.591 68.9415L151.592 68.9404C151.621 68.9048 151.636 68.8844 151.66 68.8507C151.681 68.8216 151.708 68.7826 151.759 68.7156C151.793 68.6694 151.821 68.6332 151.844 68.6023C151.889 68.5434 151.918 68.5044 151.952 68.4541L151.953 68.4523C151.988 68.4 152.016 68.3524 152.058 68.2803C152.075 68.2518 152.094 68.2196 152.116 68.1818L152.118 68.1785C152.147 68.1307 152.169 68.0944 152.187 68.0641C152.22 68.0113 152.241 67.9768 152.265 67.9315C152.294 67.8769 152.317 67.8281 152.35 67.7568C152.364 67.7255 152.381 67.6897 152.401 67.6472L152.402 67.6451C152.422 67.6023 152.439 67.5675 152.454 67.5376C152.485 67.4733 152.505 67.4316 152.526 67.3807L152.526 67.38C152.547 67.3293 152.562 67.2871 152.584 67.2227C152.596 67.1896 152.61 67.1507 152.627 67.1017M129.523 91.054L152.627 67.1017M129.523 91.054C128.308 92.2687 126.719 92.8757 125.126 92.8758L129.523 91.054ZM152.732 63.1948C152.714 63.1342 152.694 63.0812 152.665 63.0014C152.654 62.9716 152.641 62.9381 152.627 62.899L152.627 62.899L152.625 62.8935C152.612 62.8555 152.6 62.8231 152.59 62.7943C152.565 62.7226 152.548 62.674 152.526 62.6204L152.732 63.1948Z" fill="#1D1D1D" stroke="#FFFBF5" stroke-width="2"/>
<path d="M91.4376 13.4687H92.4376V14.4687V36.1248C92.4376 39.5591 95.2219 42.3435 98.6563 42.3435C102.091 42.3435 104.875 39.5591 104.875 36.1248V7.24995C104.875 3.81559 102.091 1.03125 98.6563 1.03125H7.21945C3.7851 1.03125 1.00076 3.81559 1.00076 7.24995V122.75C1.00076 126.184 3.7851 128.968 7.21945 128.968H98.6563C102.091 128.968 104.875 126.184 104.875 122.75V93.8744C104.875 90.44 102.091 87.6557 98.6563 87.6557C95.2219 87.6557 92.4376 90.44 92.4376 93.8744V115.531V116.531H91.4376H14.4381H13.4381V115.531V14.4687V13.4687H14.4381H91.4376Z" fill="#1D1D1D" stroke="#FFFBF5" stroke-width="2"/>
</svg>
