<svg width="48" height="34" viewBox="0 0 48 34" fill="none" xmlns="http://www.w3.org/2000/svg">
<path fill-rule="evenodd" clip-rule="evenodd" d="M16.9757 0.817383L16.6465 1.14658L1.17896 16.6141L0.626953 16.9936L1.1763 17.3835L16.6465 32.8537L16.9757 33.1829L17.3275 32.878L24.3135 26.8234L31.2995 32.878L31.6514 33.1829L31.9806 32.8537L47.4508 17.3835L48.0001 16.9936L47.4481 16.6141L31.9806 1.14658L31.6514 0.817383L31.2995 1.12229L24.3135 7.17683L17.3275 1.12229L16.9757 0.817383ZM25.0001 8.34177V8.2707L31.0379 6.54561L31.127 6.6069V10.7393L25.127 8.39145L25.0001 8.34177ZM25.0001 25.7155V25.6587L25.127 25.6091L31.127 23.2612V27.3493L25.0001 25.7155ZM23.627 8.2707L17.5892 6.54561L17.5001 6.6069V10.7393L23.5001 8.39145L23.627 8.34177V8.2707ZM23.627 25.6587L23.5001 25.6091L17.5001 23.2612V27.3493L23.627 25.7155V25.6587ZM16.5001 27.0322V22.8699L3.42658 17.7542L16.5001 27.0322ZM16.5001 7.2944L3.54786 16.199L16.5001 11.1307V7.2944ZM16.5001 12.2045L5.52258 16.5001H16.5001V12.2045ZM23.5001 23.3699L18.2825 17.5001H23.5001V23.3699ZM23.5001 16.5001H18.2825L23.5001 10.6303V16.5001ZM5.52148 17.5001H16.5001V21.7961L5.52148 17.5001ZM17.5001 18.1251V22.1874L23.0368 24.354L17.5001 18.1251ZM17.5001 15.8751L23.0364 9.64671L17.5001 11.8132V15.8751ZM17.5001 5.48013L17.6374 5.51937L22.4661 6.89899L17.5001 2.59512V5.48013ZM17.5001 28.3843L22.5349 27.0417L17.5001 31.4052V28.3843ZM16.5001 28.2584L6.04749 20.8405L16.5001 31.293V28.2584ZM5.70445 13.5029L16.5001 6.08087V2.70724L5.70445 13.5029ZM32.127 27.0322V22.8699L45.2005 17.7542L32.127 27.0322ZM32.127 7.2944L45.0792 16.199L32.127 11.1307V7.2944ZM32.127 12.2045L43.1045 16.5001H32.127V12.2045ZM25.127 23.3699L30.3446 17.5001H25.127V23.3699ZM25.127 16.5001H30.3446L25.127 10.6303V16.5001ZM43.1056 17.5001H32.127V21.7961L43.1056 17.5001ZM31.127 18.1251V22.1874L25.5903 24.354L31.127 18.1251ZM31.127 15.8751L25.5906 9.64671L31.127 11.8132V15.8751ZM31.127 5.48013L30.9897 5.51937L26.161 6.89899L31.127 2.59512V5.48013ZM31.127 28.3843L26.0922 27.0417L31.127 31.4052V28.3843ZM32.127 28.2584L42.5796 20.8405L32.127 31.293V28.2584ZM42.9226 13.5029L32.127 6.08087V2.70724L42.9226 13.5029Z" fill="#EBC02D"/>
</svg>
