<svg width="24" height="22" viewBox="0 0 24 22" fill="none" xmlns="http://www.w3.org/2000/svg">
<path d="M0.703182 18.7343H4.2188V20.8437C4.2188 21.232 4.53361 21.5468 4.92192 21.5468H23.2969C23.6852 21.5468 24 21.232 24 20.8437V2.5625C24 2.17418 23.6852 1.85937 23.2969 1.85937H19.7813V1.15625C19.7813 0.767937 19.4665 0.453125 19.0781 0.453125C18.6898 0.453125 18.375 0.767937 18.375 1.15625V1.85937H14.8125V1.15625C14.8125 0.767937 14.4977 0.453125 14.1094 0.453125C13.7211 0.453125 13.4063 0.767937 13.4063 1.15625V1.85937H9.89066V1.15625C9.89066 0.767937 9.57585 0.453125 9.18754 0.453125C8.79923 0.453125 8.48442 0.767937 8.48442 1.15625V1.85937H4.92192C4.53361 1.85937 4.2188 2.17418 4.2188 2.5625V6.78124C4.2188 11.9633 2.06513 15.9498 0.253042 17.4911C0.0256055 17.6806 -0.0587225 17.9922 0.0420117 18.2706C0.14284 18.5489 0.40712 18.7343 0.703182 18.7343ZM22.5938 20.1406H5.62505V18.7343H19.0781C19.2426 18.7343 19.4019 18.6767 19.5283 18.5714C20.3735 17.8673 21.6828 16.1912 22.5938 14.0444V20.1406ZM5.62505 3.26562H8.48442V3.96874C8.48442 4.35705 8.79923 4.67187 9.18754 4.67187C9.57585 4.67187 9.89066 4.35705 9.89066 3.96874V3.26562H13.4063V3.96874C13.4063 4.35705 13.7211 4.67187 14.1094 4.67187C14.4977 4.67187 14.8125 4.35705 14.8125 3.96874V3.26562H18.375V3.96874C18.375 4.35705 18.6898 4.67187 19.0781 4.67187C19.4665 4.67187 19.7813 4.35705 19.7813 3.96874V3.26562H22.5938V6.07811H5.62505V3.26562ZM5.613 7.48389H22.5813C22.4229 11.9443 20.7109 15.4537 18.8024 17.3281H2.30251C4.46499 14.5727 5.49698 10.9851 5.613 7.48389Z" fill="#1D1D1D"/>
</svg>
