<svg width="10" height="6" viewBox="0 0 10 6" fill="none" xmlns="http://www.w3.org/2000/svg">
<path d="M9.12981 0.956909C9.00479 0.831929 8.83525 0.761719 8.65847 0.761719C8.4817 0.761719 8.31216 0.831929 8.18714 0.956909L5.12981 4.01424C5.00305 4.1359 4.83417 4.20384 4.65847 4.20384C4.48278 4.20384 4.31389 4.1359 4.18714 4.01424L1.12981 0.956909C1.00407 0.835471 0.835671 0.768275 0.660874 0.769794C0.486076 0.771312 0.318868 0.841425 0.195262 0.96503C0.0716569 1.08864 0.00154415 1.25584 2.52016e-05 1.43064C-0.00149374 1.60544 0.0657028 1.77384 0.187141 1.89958L3.24381 4.95691C3.42953 5.14266 3.65002 5.29001 3.8927 5.39054C4.13537 5.49107 4.39547 5.54282 4.65814 5.54282C4.92081 5.54282 5.18091 5.49107 5.42359 5.39054C5.66626 5.29001 5.88675 5.14266 6.07247 4.95691L9.12981 1.89958C9.25479 1.77456 9.325 1.60502 9.325 1.42824C9.325 1.25147 9.25479 1.08193 9.12981 0.956909Z" fill="#FFFBF5"/>
</svg>
