<svg width="24" height="26" viewBox="0 0 24 26" fill="none" xmlns="http://www.w3.org/2000/svg">
<path d="M3.32688 19.6346H3.32576C3.31518 19.6345 3.30441 19.6343 3.29346 19.634C1.94327 19.5996 0.876439 18.4775 0.91005 17.1275V13.4159C0.91005 12.033 1.9561 10.8208 3.32688 10.8208H3.58329V9.46534C3.58329 4.73484 7.41808 0.9 12.1486 0.9C16.8792 0.9 20.714 4.73484 20.714 9.46534V10.8212C21.4191 10.8359 22.0103 11.2323 22.4239 11.7774C22.8449 12.3324 23.0902 13.0515 23.0902 13.7127V17.4256C23.0902 18.029 22.8807 18.5455 22.4999 18.9224C22.1291 19.2894 21.6027 19.5175 20.9667 19.5711L20.4293 20.363L20.4266 20.367L20.4265 20.3669C19.3089 21.8532 17.5646 22.7339 15.7082 22.753C15.6096 23.2792 15.3574 23.7651 14.9825 24.149L14.9825 24.149C14.4004 24.7447 13.6067 25.0864 12.774 25.0999L12.7724 25.0999C11.0886 25.1 9.71889 23.744 9.70208 22.0603L9.70206 22.0585C9.71342 20.6225 10.7279 19.3903 12.135 19.1033C13.7534 18.7732 15.3337 19.7952 15.7043 21.3946C17.0955 21.3771 18.4039 20.7296 19.2617 19.6346H18.7724H18.7678L18.7678 19.6345C18.7546 19.6339 18.7414 19.6329 18.7282 19.6315C18.3652 19.5926 18.102 19.2683 18.1377 18.9057V11.6336C18.1377 11.4375 18.1946 11.2388 18.3004 11.0865C18.4069 10.9331 18.5684 10.8207 18.7724 10.8207H19.3259V9.46529C19.3259 5.50144 16.1125 2.28806 12.1486 2.28806C8.18479 2.28806 4.97141 5.50144 4.97141 9.46529V10.8207H5.52488C5.72891 10.8207 5.89037 10.9331 5.99687 11.0865C6.10265 11.2388 6.15953 11.4375 6.15953 11.6336V18.9057L3.32688 19.6346ZM3.32688 19.6346H5.52488V19.6347L5.52957 19.6345C5.89603 19.6173 6.17918 19.3063 6.16199 18.9398L3.32688 19.6346ZM13.9781 23.1776L13.9781 23.1776C14.2671 22.8817 14.4185 22.478 14.3954 22.065L14.395 22.0594H14.3952V22.058L13.9781 23.1776ZM13.9781 23.1776L13.9761 23.1797M13.9781 23.1776L13.9761 23.1797M13.9761 23.1797C13.666 23.516 13.2303 23.7087 12.7729 23.7119M13.9761 23.1797L12.7729 23.7119M12.7729 23.7119C11.8609 23.6968 11.1209 22.9693 11.0903 22.0577C11.0907 21.1458 11.8299 20.4066 12.7421 20.4062C13.6547 20.4058 14.3948 21.1453 14.3952 22.058L12.7729 23.7119ZM2.29805 17.1335L2.29817 17.1335V17.1287V13.4158C2.29817 12.7697 2.74519 12.2089 3.32688 12.2089H3.87141C4.36847 12.2089 4.77141 12.6118 4.77141 13.1089V17.3465C4.77141 17.8436 4.36847 18.2465 3.87141 18.2465H3.32809C2.74427 18.2316 2.28272 17.7467 2.29695 17.1627L2.19698 17.1603L2.29694 17.163C2.2972 17.1532 2.29758 17.1434 2.29805 17.1335ZM21.7021 17.4257C21.7021 17.7861 21.5327 17.9847 21.3234 18.0991C21.1068 18.2176 20.8439 18.2465 20.6734 18.2465H20.4259C19.9288 18.2465 19.5259 17.8436 19.5259 17.3465V13.1089C19.5259 12.6119 19.9288 12.2089 20.4259 12.2089H20.6734C20.9502 12.2089 21.2058 12.4052 21.3984 12.7083C21.5894 13.0089 21.7021 13.3915 21.7021 13.7129V17.4257Z" fill="#FFFBF5" stroke="#FFFBF5" stroke-width="0.2"/>
</svg>
