<svg width="16" height="13" viewBox="0 0 16 13" fill="none" xmlns="http://www.w3.org/2000/svg">
<path d="M5.20001 12.2837C4.97711 12.2838 4.75638 12.24 4.55047 12.1546C4.34455 12.0693 4.15749 11.9442 4.00001 11.7864L0.37201 8.15975C0.184539 7.97222 0.0792236 7.71791 0.0792236 7.45275C0.0792236 7.18758 0.184539 6.93327 0.37201 6.74575C0.559538 6.55828 0.813846 6.45296 1.07901 6.45296C1.34417 6.45296 1.59848 6.55828 1.78601 6.74575L5.20001 10.1597L14.232 1.12775C14.4195 0.940276 14.6738 0.834961 14.939 0.834961C15.2042 0.834961 15.4585 0.940276 15.646 1.12775C15.8335 1.31528 15.9388 1.56958 15.9388 1.83475C15.9388 2.09991 15.8335 2.35422 15.646 2.54175L6.40001 11.7864C6.24252 11.9442 6.05547 12.0693 5.84955 12.1546C5.64364 12.24 5.42291 12.2838 5.20001 12.2837Z" fill="#0B8710"/>
</svg>
