<svg width="145" height="145" viewBox="0 0 145 145" fill="none" xmlns="http://www.w3.org/2000/svg">
<path fill-rule="evenodd" clip-rule="evenodd" d="M130.836 40.7775H127.783L87.836 0.830293C86.7301 -0.275616 84.9365 -0.275616 83.8309 0.830293L73.5971 11.0644L32.6674 0.097363C31.1565 -0.307901 29.6035 0.589004 29.1988 2.09989L18.8358 40.7775H11.8945C5.33607 40.7775 0.000244141 46.1131 0.000244141 52.6718C0.000244141 52.8289 0.00619141 52.985 0.0121387 53.1407C0.005625 53.2186 0.000244141 53.2968 0.000244141 53.3764V130.84C0.000244141 138.648 6.35249 145 14.1601 145H115.544C115.568 145 115.592 144.999 115.616 144.998C115.636 144.998 115.655 144.997 115.675 144.997H130.836C138.644 144.997 144.996 138.645 144.996 130.837V54.9371C144.996 47.1292 138.644 40.7775 130.836 40.7775ZM128.306 46.4413H130.836C135.521 46.4413 139.332 50.2526 139.332 54.9371V77.6339C139.332 81.335 136.321 84.3461 132.62 84.3461H129.704V73.0615C129.704 65.3525 123.51 59.0671 115.838 58.909L128.306 46.4413ZM76.4461 16.2255L76.447 16.2244L85.8337 6.8376L122.867 43.8709L107.928 58.8099H102.747L109.524 52.0331C110.63 50.9272 110.63 49.134 109.524 48.0281C107.231 45.7356 107.231 42.0058 109.524 39.7132C110.63 38.6073 110.63 36.8141 109.524 35.7079L93.9962 20.181C92.8903 19.0751 91.0971 19.0751 89.9909 20.181C87.6983 22.4738 83.9683 22.4738 81.676 20.181C80.5701 19.0751 78.7766 19.0751 77.671 20.181L39.0421 58.8102H33.8611L76.4461 16.2255ZM68.1117 48.1702C61.6468 48.1702 56.2302 52.7352 54.9091 58.8102H47.0516L79.9219 25.9399C83.55 28.1025 88.1169 28.1025 91.745 25.9399L103.764 37.9594C101.602 41.5872 101.602 46.1547 103.764 49.7825L94.7368 58.8102H81.3144C79.9932 52.7349 74.577 48.1702 68.1117 48.1702ZM60.8102 58.8102C61.9594 55.8997 64.7985 53.8343 68.1123 53.8343C71.426 53.8343 74.2649 55.8997 75.4144 58.8102H60.8102ZM30.868 53.7932L38.3677 25.8034C40.4241 25.8366 42.4697 25.3115 44.3017 24.2532C46.134 23.1954 47.6084 21.6913 48.6112 19.8893L61.3568 23.3044L42.8605 41.8007L30.868 53.7932ZM33.937 6.30121L68.9724 15.6888L65.9815 18.68L47.678 13.7755C46.9522 13.5809 46.1793 13.6829 45.5291 14.0584C44.8786 14.434 44.4039 15.0525 44.2097 15.778C43.803 17.2949 42.8302 18.5628 41.4702 19.3481C40.11 20.1334 38.5255 20.3419 37.0084 19.9355C35.4981 19.5305 33.9447 20.4271 33.54 21.938L23.6352 58.902H19.8426L33.937 6.30121ZM11.8945 46.4413H17.3175L13.9786 58.902H11.8942C8.45867 58.902 5.66402 56.107 5.66402 52.6718C5.66431 49.2362 8.45952 46.4413 11.8945 46.4413ZM139.332 130.837C139.332 135.521 135.521 139.332 130.836 139.332H126.866C128.647 136.965 129.704 134.024 129.704 130.84V119.462H131.403C134.361 119.462 137.098 118.51 139.332 116.899V130.837ZM139.332 105.869C139.332 110.241 135.775 113.798 131.403 113.798H71.9318C65.3734 113.798 60.0376 108.463 60.0376 101.904C60.0376 95.3454 65.3731 90.0098 71.9318 90.0098H80.5146C82.0787 90.0098 83.3466 88.7417 83.3466 87.1778C83.3466 85.614 82.0787 84.3458 80.5146 84.3458H71.9318C62.2503 84.3458 54.3738 92.2222 54.3738 101.904C54.3738 111.585 62.2503 119.462 71.9318 119.462H124.04V130.84C124.04 135.481 120.299 139.265 115.675 139.336H19.2575V107.444C19.2575 105.881 17.9896 104.612 16.4255 104.612C14.8613 104.612 13.5934 105.881 13.5934 107.444V139.315C9.17206 139.022 5.66402 135.334 5.66402 130.84V62.798C7.47737 63.9178 9.61131 64.5657 11.8942 64.5657H115.543C120.228 64.5657 124.039 68.3771 124.039 73.0615V84.3461H103.563C101.999 84.3461 100.731 85.6142 100.731 87.1781C100.731 88.7419 101.999 90.0101 103.563 90.0101H132.62C135.093 90.0101 137.397 89.278 139.332 88.0234V105.869ZM92.5529 84.3415C93.2977 84.3415 94.0284 84.6448 94.5551 85.1715C95.0819 85.698 95.3849 86.4287 95.3849 87.1735C95.3849 87.9186 95.0819 88.6493 94.5551 89.1758C94.0284 89.7028 93.2977 90.0055 92.5529 90.0055C91.8081 90.0055 91.0774 89.7028 90.5506 89.1758C90.021 88.6493 89.7209 87.9186 89.7209 87.1735C89.7209 86.4287 90.021 85.698 90.5506 85.1715C91.0774 84.6445 91.8081 84.3415 92.5529 84.3415ZM64.4611 101.923C64.4611 97.863 67.7641 94.56 71.8242 94.56C75.8845 94.56 79.1872 97.863 79.1872 101.923C79.1872 105.983 75.8839 109.286 71.8242 109.286C67.7644 109.286 64.4611 105.983 64.4611 101.923ZM70.1249 101.923C70.1249 102.86 70.887 103.622 71.8242 103.622C72.7613 103.622 73.5234 102.86 73.5234 101.923C73.5234 100.986 72.7613 100.224 71.8242 100.224C70.887 100.224 70.1249 100.986 70.1249 101.923ZM16.4272 93.5688C17.172 93.5688 17.9027 93.8721 18.4294 94.3986C18.9559 94.9254 19.2589 95.656 19.2592 96.4008C19.2592 97.1457 18.9562 97.8763 18.4294 98.4031C17.9027 98.9299 17.172 99.2329 16.4272 99.2329C15.6824 99.2329 14.9517 98.9299 14.425 98.4031C13.8982 97.8763 13.5952 97.1457 13.5952 96.4008C13.5952 95.656 13.8982 94.9254 14.425 94.3986C14.9517 93.8718 15.6824 93.5688 16.4272 93.5688Z" fill="url(#paint0_linear_300:3709)"/>
<defs>
<linearGradient id="paint0_linear_300:3709" x1="0.000244217" y1="84.1" x2="144.996" y2="84.1" gradientUnits="userSpaceOnUse">
<stop stop-color="#EEA526"/>
<stop offset="0.510417" stop-color="#FFC002"/>
<stop offset="1" stop-color="#EEA526"/>
</linearGradient>
</defs>
</svg>
