<svg width="24" height="24" viewBox="0 0 24 24" fill="none" xmlns="http://www.w3.org/2000/svg">
<path d="M11.9999 18.26C12.4896 18.26 12.8866 17.8631 12.8866 17.3734C12.8866 16.8837 12.4896 16.4867 11.9999 16.4867C11.5103 16.4867 11.1133 16.8837 11.1133 17.3734C11.1133 17.8631 11.5103 18.26 11.9999 18.26Z" fill="#EB4242"/>
<path d="M11.9999 15.0733C11.8231 15.0733 11.6535 15.0031 11.5285 14.8781C11.4035 14.753 11.3333 14.5835 11.3333 14.4067V6.40666C11.3333 6.22985 11.4035 6.06028 11.5285 5.93525C11.6535 5.81023 11.8231 5.73999 11.9999 5.73999C12.1767 5.73999 12.3463 5.81023 12.4713 5.93525C12.5963 6.06028 12.6666 6.22985 12.6666 6.40666V14.4067C12.6666 14.5835 12.5963 14.753 12.4713 14.8781C12.3463 15.0031 12.1767 15.0733 11.9999 15.0733Z" fill="#EB4242"/>
<path d="M10.0413 1.12074C10.2265 0.783511 10.499 0.502264 10.8303 0.306415C11.1615 0.110566 11.5392 0.00731015 11.924 0.00744642C12.3088 0.0075827 12.6864 0.111106 13.0175 0.30719C13.3486 0.503274 13.6209 0.784713 13.8059 1.12207L23.0659 18.1621C23.2435 18.489 23.3331 18.8565 23.3259 19.2285C23.3186 19.6005 23.2148 19.9642 23.0246 20.284C22.8345 20.6038 22.5644 20.8686 22.241 21.0526C21.9177 21.2366 21.552 21.3333 21.1799 21.3334H2.68126C2.30501 21.3418 1.93316 21.2512 1.603 21.0706C1.27283 20.8899 0.995946 20.6257 0.80011 20.3043C0.604274 19.983 0.496367 19.6157 0.487208 19.2395C0.478049 18.8633 0.567961 18.4913 0.747928 18.1607L10.0413 1.12074ZM1.91993 18.7987C1.85124 18.925 1.81725 19.0672 1.82141 19.2109C1.82557 19.3546 1.86774 19.4946 1.94362 19.6167C2.0195 19.7388 2.12638 19.8386 2.25338 19.9059C2.38038 19.9733 2.52296 20.0058 2.66659 20.0001H21.1799C21.3209 20 21.4594 19.9633 21.582 19.8935C21.7045 19.8237 21.8067 19.7233 21.8787 19.6021C21.9507 19.4809 21.99 19.3431 21.9927 19.2021C21.9953 19.0611 21.9613 18.9219 21.8939 18.7981L12.6359 1.76141C12.5658 1.63392 12.4627 1.5276 12.3374 1.45353C12.2121 1.37946 12.0693 1.34035 11.9238 1.34029C11.7783 1.34022 11.6354 1.37919 11.5101 1.45315C11.3847 1.5271 11.2816 1.63332 11.2113 1.76074L1.91926 18.7987H1.91993Z" fill="#EB4242"/>
</svg>
