<svg width="16" height="16" viewBox="0 0 16 16" fill="none" xmlns="http://www.w3.org/2000/svg">
<path d="M8.59375 11.875C8.59375 12.2202 8.31396 12.5 7.96875 12.5C7.62354 12.5 7.34375 12.2202 7.34375 11.875C7.34375 11.5298 7.62354 11.25 7.96875 11.25C8.31396 11.25 8.59375 11.5298 8.59375 11.875ZM8.59375 4.34375C8.59375 3.99854 8.31396 3.71875 7.96875 3.71875C7.62354 3.71875 7.34375 3.99854 7.34375 4.34375V9.6875C7.34375 10.0327 7.62354 10.3125 7.96875 10.3125C8.31396 10.3125 8.59375 10.0327 8.59375 9.6875V4.34375ZM13.6569 2.34314C12.1459 0.832153 10.1368 0 8 0C5.86316 0 3.85413 0.832153 2.34314 2.34314C0.832153 3.85413 0 5.86316 0 8C0 10.1368 0.832153 12.1459 2.34314 13.6569C3.85413 15.1678 5.86316 16 8 16C9.46289 16 10.8943 15.6013 12.1394 14.847C12.4347 14.6682 12.5291 14.2839 12.3502 13.9888C12.1713 13.6935 11.787 13.5991 11.4918 13.778C10.442 14.4138 9.2345 14.75 8 14.75C4.27808 14.75 1.25 11.7219 1.25 8C1.25 4.27808 4.27808 1.25 8 1.25C11.7219 1.25 14.75 4.27808 14.75 8C14.75 9.33093 14.3542 10.6263 13.6055 11.7465C13.4136 12.0333 13.4907 12.4215 13.7776 12.6134C14.0646 12.8053 14.4528 12.7281 14.6445 12.4412C15.5314 11.1149 16 9.5791 16 8C16 5.86316 15.1678 3.85413 13.6569 2.34314Z" fill="#EB5757"/>
</svg>
