<svg width="32" height="32" viewBox="0 0 32 32" fill="none" xmlns="http://www.w3.org/2000/svg">
<path d="M31.521 19.8704C29.3839 28.4419 20.7013 33.6583 12.1278 31.5209C3.55793 29.3839 -1.65911 20.7018 0.478986 12.131C2.6152 3.55858 11.2977 -1.65826 19.8686 0.478653C28.4415 2.61557 33.6582 11.2986 31.5208 19.8705L31.521 19.8704H31.521Z" fill="#F7931A"/>
<path d="M22.3699 14.3335C22.6696 12.3295 21.1439 11.2523 19.0576 10.5337L19.7344 7.8191L18.082 7.40735L17.4231 10.0505C16.9887 9.94212 16.5426 9.84003 16.0992 9.73882L16.7628 7.07826L15.1114 6.6665L14.4342 9.38022C14.0747 9.29837 13.7216 9.21747 13.379 9.13224L13.381 9.1237L11.1022 8.55465L10.6626 10.3196C10.6626 10.3196 11.8886 10.6006 11.8628 10.6179C12.5319 10.7849 12.6529 11.2279 12.6328 11.579L11.8619 14.6715C11.9079 14.6832 11.9677 14.7002 12.0337 14.7267C11.9785 14.713 11.9199 14.698 11.859 14.6835L10.7784 19.0157C10.6966 19.219 10.489 19.5241 10.0212 19.4082C10.0378 19.4322 8.82017 19.1085 8.82017 19.1085L7.99976 21L10.1502 21.5361C10.5502 21.6364 10.9422 21.7414 11.3283 21.8401L10.6445 24.5858L12.295 24.9976L12.9722 22.281C13.4231 22.4034 13.8607 22.5163 14.2891 22.6228L13.6142 25.3265L15.2667 25.7383L15.9505 22.9977C18.7683 23.531 20.887 23.316 21.7788 20.7673C22.4974 18.7153 21.7431 17.5317 20.2606 16.7599C21.3404 16.5109 22.1536 15.8007 22.3705 14.3338L22.37 14.3334L22.3699 14.3335ZM18.5944 19.6277C18.0837 21.6797 14.6288 20.5705 13.5087 20.2923L14.4161 16.6547C15.5361 16.9343 19.1281 17.4877 18.5945 19.6277H18.5944ZM19.1055 14.3038C18.6396 16.1703 15.764 15.222 14.8312 14.9895L15.6539 11.6904C16.5867 11.9229 19.5907 12.3569 19.1056 14.3038H19.1055Z" fill="#FFFBF5"/>
</svg>
