<svg width="32" height="32" viewBox="0 0 32 32" fill="none" xmlns="http://www.w3.org/2000/svg">
<path d="M15.9998 32.0001C24.8363 32.0001 31.9998 24.8367 31.9998 16.0001C31.9998 7.16357 24.8363 0.00012207 15.9998 0.00012207C7.1632 0.00012207 -0.000244141 7.16357 -0.000244141 16.0001C-0.000244141 24.8367 7.1632 32.0001 15.9998 32.0001Z" fill="#8DC351"/>
<path d="M20.4233 10.902C19.6703 9.01969 17.8821 8.92557 15.7174 9.30204L14.9645 6.66675L13.3645 7.13734L14.1174 9.67851C13.7409 9.77263 13.2703 9.96087 12.7998 10.055L12.0468 7.41969L10.4468 7.89028L11.1998 10.5256C10.8233 10.6197 10.5409 10.7138 10.1645 10.8079L7.99976 11.5609L8.47034 13.255C8.47034 13.255 9.69387 12.8785 9.59976 12.8785C10.2586 12.6903 10.5409 12.9726 10.7292 13.3491L11.5762 16.3609C11.5762 16.3609 11.6703 16.3609 11.7645 16.3609L11.5762 16.455L12.7998 20.6903C12.7998 20.8785 12.7998 21.255 12.3292 21.4432L11.1998 21.8197L11.388 23.7962L13.4586 23.2315C13.835 23.1373 14.2115 23.0432 14.588 22.9491L15.3409 25.5844L16.9409 25.1138L16.188 22.4785C16.6586 22.3844 17.035 22.2903 17.5056 22.102L18.2586 24.7373L19.8586 24.2668L19.1056 21.6315C21.7409 20.6903 23.435 19.4667 22.9645 16.8315C22.588 14.7609 21.3645 14.102 19.6703 14.1962C20.6115 13.255 20.988 12.3138 20.4233 10.902ZM19.8586 17.302C20.4233 19.2785 16.9409 20.0315 15.8115 20.4079L14.7762 16.8315C15.9056 16.5491 19.1998 15.2315 19.8586 17.302ZM17.5998 12.502C18.1645 14.2903 15.2468 14.9491 14.3056 15.2315L13.3645 12.0315C14.3056 11.7491 17.1292 10.6197 17.5998 12.502Z" fill="#FFFBF5"/>
</svg>
