<svg width="32" height="32" viewBox="0 0 32 32" fill="none" xmlns="http://www.w3.org/2000/svg">
<circle cx="16" cy="16" r="15.925" fill="#FFFBF5" stroke="#1D1D1D" stroke-width="0.15"/>
<path d="M19.0582 7.47314H10.955L10.283 11.2277L17.5971 11.2364C21.2 11.2364 22.2622 12.5457 22.2318 14.7135C22.2145 15.8234 21.7332 17.7051 21.5251 18.3164C20.9702 19.9422 19.8299 21.7935 15.5551 21.7891L8.44475 21.7848L7.7749 25.5437H15.8607C18.7135 25.5437 19.9231 25.2099 21.2108 24.6203C24.0593 23.2979 25.7545 20.4885 26.4352 16.8206C27.4432 11.3578 26.1859 7.47314 19.0582 7.47314Z" fill="#008DE4"/>
<path d="M7.45851 14.6219C5.33408 14.6219 5.0306 16.005 4.83116 16.8418C4.56669 17.9343 4.47998 18.3809 4.47998 18.3809H12.7782C14.9027 18.3809 15.2061 16.9978 15.4056 16.1611C15.67 15.0685 15.7568 14.6219 15.7568 14.6219H7.45851Z" fill="#008DE4"/>
</svg>
