<svg width="32" height="32" viewBox="0 0 32 32" fill="none" xmlns="http://www.w3.org/2000/svg">
<circle cx="16" cy="16" r="15.925" fill="#FFFBF5" stroke="#1D1D1D" stroke-width="0.15"/>
<path d="M8.60034 16.6789C11.0371 17.973 13.5798 19.3275 15.5436 20.3756L22.4301 16.6789C19.9366 20.3832 17.859 23.467 15.5436 26.88C13.2241 23.4745 10.6625 19.7169 8.60034 16.6789ZM8.86519 15.6571L15.5511 12.0895L22.1501 15.631L15.5549 19.2027L8.86519 15.6571ZM15.5436 10.9464L8.60034 14.6016L15.5133 4.47998L22.4301 14.6242L15.5436 10.9464Z" fill="#3AB83A"/>
<path d="M15.5435 20.3756L22.43 16.6789C19.9365 20.3832 15.5435 26.88 15.5435 26.88V20.3756ZM15.551 12.0895L22.15 15.631L15.5548 19.2027L15.551 12.0895ZM15.5435 10.9467L15.5132 4.47998L22.43 14.6242L15.5435 10.9467Z" fill="#0B8311"/>
<path d="M8.86548 15.6572L15.5518 16.2059L22.1507 15.6345L15.5552 19.2064L8.86548 15.6572Z" fill="#0B8311"/>
<path d="M15.5515 16.2059L22.1505 15.6345L15.5553 19.2064L15.5515 16.2059Z" fill="#146714"/>
</svg>
