<svg width="32" height="32" viewBox="0 0 32 32" fill="none" xmlns="http://www.w3.org/2000/svg">
<circle cx="16" cy="16" r="15.925" fill="#FFFBF5" stroke="#1D1D1D" stroke-width="0.15"/>
<g clip-path="url(#clip0_1290:9871)">
<path d="M22.2307 8.59204H24.9115L19.3326 14.1158C17.3123 16.1152 14.0367 16.1152 12.0149 14.1158L6.43384 8.59204H9.11677L13.3553 12.7881C13.9728 13.3968 14.805 13.738 15.6721 13.738C16.5392 13.738 17.3714 13.3968 17.989 12.7881L22.2307 8.59204Z" fill="#23292F"/>
<path d="M9.08247 23.952H6.3999L12.015 18.3942C14.0353 16.3948 17.3109 16.3948 19.3327 18.3942L24.9478 23.952H22.2671L17.9924 19.7219C17.3748 19.1132 16.5426 18.772 15.6755 18.772C14.8084 18.772 13.9762 19.1132 13.3586 19.7219L9.08247 23.952Z" fill="#23292F"/>
</g>
<defs>
<clipPath id="clip0_1290:9871">
<rect width="19.2" height="16.32" fill="white" transform="translate(6.3999 7.67993)"/>
</clipPath>
</defs>
</svg>
