<svg width="32" height="32" viewBox="0 0 32 32" fill="none" xmlns="http://www.w3.org/2000/svg">
<circle cx="16" cy="16" r="15.925" fill="#FFFBF5" stroke="#1D1D1D" stroke-width="0.15"/>
<path d="M26.0147 12.1171C25.0265 11.2046 23.6594 9.8112 22.546 8.82297L22.4801 8.77685C22.3705 8.68882 22.2469 8.61979 22.1145 8.57262C19.4298 8.07191 6.93518 5.73638 6.69141 5.76603C6.62311 5.77559 6.55782 5.80036 6.50035 5.8385L6.43776 5.88791C6.3607 5.96618 6.30216 6.06073 6.26647 6.16462L6.25 6.20744V6.44132V6.47756C7.65659 10.3943 13.2105 23.2249 14.3041 26.2357C14.37 26.4399 14.4952 26.8286 14.7291 26.8484H14.7818C14.9069 26.8484 15.4406 26.1434 15.4406 26.1434C15.4406 26.1434 24.9804 14.5745 25.9455 13.3425C26.0705 13.1907 26.1808 13.0275 26.2749 12.855C26.299 12.72 26.2876 12.5811 26.242 12.4517C26.1964 12.3224 26.1181 12.2071 26.0147 12.1171ZM17.8881 13.4644L21.9596 10.0879L24.3479 12.2884L17.8881 13.4644ZM16.3069 13.2437L9.29706 7.49873L20.6387 9.5905L16.3069 13.2437ZM16.9394 14.7491L24.114 13.5929L15.9116 23.4752L16.9394 14.7491ZM8.34506 8.07191L15.7206 14.3307L14.6533 23.4818L8.34506 8.07191Z" fill="#FF060A"/>
</svg>
