<?xml version="1.0" encoding="utf-8"?>
<!-- Generator: Adobe Illustrator 25.4.1, SVG Export Plug-In . SVG Version: 6.00 Build 0)  -->
<svg version="1.1" xmlns="http://www.w3.org/2000/svg" xmlns:xlink="http://www.w3.org/1999/xlink" x="0px" y="0px"
	 viewBox="0 0 2340 1846" style="enable-background:new 0 0 2340 1846;" xml:space="preserve">
<style type="text/css">
	.st0{display:none;}
	.st1{display:inline;fill:#50AF95;}
	.st2{display:inline;opacity:0.81;fill:url(#SVGID_1_);}
	.st3{display:inline;}
	.st4{fill:#50AF95;}
	.st5{opacity:0.81;fill:url(#SVGID_00000146459457551871754270000018397480726815294897_);}
</style>
<g id="Layer_1" class="st0">
	<path class="st1" d="M1780.31,552.97c0-46.81-115.26-87.57-285.73-108.86c18.82-30.74,28.28-67.31,28.28-109.77
		c0-65.33-21.96-119.93-65.85-163.84c-15.18-15.17-32.18-27.72-51.02-37.65c-45.64-24.06-100.49,8.94-100.49,60.53v3.55
		c0,22.45,11.27,43.39,29.98,55.81c4.22,2.8,8.2,5.94,11.96,9.42c19.31,17.92,28.98,41.62,28.98,71.12
		c0,29.5-9.67,53.39-28.98,71.65c-19.33,18.27-44.78,27.39-76.39,27.39h-139.08V235.3h51.88c36.08,0,65.32-29.25,65.32-65.32v0
		c0-36.08-29.25-65.32-65.32-65.32h-192.2h-6.13H826.68c-34.09,0-61.73,27.64-61.73,61.73v0c0,34.09,27.64,61.73,61.73,61.73h158.83
		v212.3C797.38,460.4,667.3,503.31,667.3,553.02c0,49.71,130.07,92.58,318.21,112.59v116c0,40.44,32.78,73.23,73.23,73.23h0
		c40.44,0,73.23-32.79,73.23-73.23v-226h106.35l125.02,257.17c12.51,25.73,38.61,42.06,67.21,42.06h0
		c56.02,0,92.13-59.36,66.36-109.1l-41.19-79.53C1647.21,646.55,1780.31,603.24,1780.31,552.97z M720.32,542.32
		c0-37.4,107.33-69.83,265.19-86.4v172.76C827.65,612.18,720.32,579.73,720.32,542.32z M1437.52,631.07l-51.63-99.7
		c39.33-14.05,71.99-37.93,97.99-71.65c0.31-0.41,0.6-0.83,0.92-1.24c145.32,17.18,242.45,48.3,242.45,83.84
		C1727.24,581.59,1608.7,615.46,1437.52,631.07z"/>
	<path class="st1" d="M1743.12,1211.97c-4.75,0-8.34,4.51-7.67,9.55c0.52,3.98,0.8,8.06,0.8,12.2c0,47.23-35.16,85.51-78.52,85.51
		s-78.52-38.28-78.52-85.51c0-4.14,0.27-8.22,0.8-12.2c0.66-5.04-2.92-9.55-7.67-9.55h-34.96c-3.97,0-7.34,3.2-7.74,7.43
		c-0.44,4.71-0.67,9.49-0.67,14.32c0,77.32,57.77,140.23,128.77,140.23s128.77-62.91,128.77-140.23c0-4.84-0.23-9.61-0.67-14.32
		c-0.4-4.23-3.77-7.43-7.74-7.43H1743.12z"/>
	<path class="st1" d="M1740.22,1171.18h-143.5c-4.66,0-8.44-3.78-8.44-8.44v-38.17c0-4.66,3.78-8.44,8.44-8.44h143.5
		c4.66,0,8.44,3.78,8.44,8.44v38.17C1748.67,1167.4,1744.88,1171.18,1740.22,1171.18z"/>
	<path class="st1" d="M1090.14,1487.27h-143.7c-4.61,0-8.34-3.74-8.34-8.34v-38.37c0-4.61,3.74-8.34,8.34-8.34h143.7
		c4.61,0,8.34,3.74,8.34,8.34v38.37C1098.48,1483.54,1094.75,1487.27,1090.14,1487.27z"/>
	<linearGradient id="SVGID_1_" gradientUnits="userSpaceOnUse" x1="1679.7979" y1="1361.592" x2="1518.4413" y2="1230.928">
		<stop  offset="0.1667" style="stop-color:#50AF95"/>
		<stop  offset="0.2529" style="stop-color:#4AA38A"/>
		<stop  offset="0.4103" style="stop-color:#3B826F"/>
		<stop  offset="0.6211" style="stop-color:#234D41"/>
		<stop  offset="0.8751" style="stop-color:#020403"/>
		<stop  offset="0.8883" style="stop-color:#000000"/>
	</linearGradient>
	<path class="st2" d="M1670.34,1318.12c-4.11,0.72-8.32,1.11-12.62,1.11c-43.37,0-78.52-38.28-78.52-85.51
		c0-4.14,0.27-8.22,0.8-12.2c0.66-5.04-2.92-9.55-7.67-9.55h-34.96c-3.97,0-7.34,3.2-7.74,7.43c-0.44,4.71-0.67,9.49-0.67,14.32
		c0,77.32,57.77,140.23,128.77,140.23c4.26,0,8.47-0.24,12.62-0.68V1318.12z"/>
	<g class="st3">
		<path class="st4" d="M1234.98,1211.97h-31.52c-6.73,0-12.19,5.46-12.19,12.19v195.86c0,6.73,5.46,12.19,12.19,12.19h31.52
			c6.73,0,12.19-5.46,12.19-12.19v-195.86C1247.17,1217.43,1241.72,1211.97,1234.98,1211.97z"/>
		<path class="st4" d="M1130.82,1211.98h-37.45c-5.09,0-8.92,4.5-8.21,9.54c0.55,4,0.86,8.07,0.86,12.21
			c0,47.23-37.66,85.51-84.1,85.51c-12.51,0-24.39-2.78-35.06-7.76c-29.06-13.56-46.98-43.46-46.98-75.52v-132.3
			c0-6.78-5.49-12.27-12.27-12.27h-31.35c-6.78,0-12.27,5.49-12.27,12.27v130.07c0,12.89,1.71,25.36,4.95,37.23
			c16.06,59.31,69.59,102.99,132.97,102.99c76.04,0,137.92-62.91,137.92-140.23c0-4.83-0.26-9.61-0.74-14.32
			C1138.67,1215.17,1135.07,1211.98,1130.82,1211.98z"/>
		<path class="st4" d="M806.14,1092.13h-34.91c-5.79,0-10.49,4.7-10.49,10.49v195.45c0,13.81-3.47,27.51-10.72,39.26
			c-14.87,24.12-41.25,40.16-71.32,40.16c-46.44,0-84.1-38.28-84.1-85.51c0-4.14,0.31-8.21,0.86-12.21
			c0.71-5.04-3.12-9.54-8.21-9.54h-43.58c-0.69,0-1.29,0.51-1.39,1.2c-0.95,6.7-1.49,13.58-1.49,20.55
			c0,77.32,61.88,140.23,137.92,140.23c63.38,0,116.91-43.68,132.97-102.99c3.24-11.87,4.95-24.34,4.95-37.23v-189.36
			C816.63,1096.83,811.93,1092.13,806.14,1092.13z"/>
		<path class="st4" d="M1376.89,1171.18h132.26c7.77,0,14.06-6.3,14.06-14.06v-26.94c0-7.77-6.3-14.06-14.06-14.06h-132.26
			c-7.77,0-14.06,6.3-14.06,14.06v26.94C1362.83,1164.89,1369.13,1171.18,1376.89,1171.18z"/>
		<path class="st4" d="M1580.22,1219.4c-0.43-4.23-4.04-7.43-8.29-7.43h-37.44c-5.09,0-8.93,4.51-8.22,9.55
			c0.56,3.98,0.85,8.06,0.85,12.2c0,47.23-37.65,85.51-84.1,85.51c-40.06,0-73.56-28.49-82.02-66.62v-28.45
			c0-1.97-0.48-3.83-1.31-5.47c-0.75-3.78-4.04-6.72-8.14-6.72h-2.74h-31.52h-3.18c-4.25,0-7.86,3.2-8.29,7.43
			c-0.03,0.28-0.04,0.56-0.06,0.84c-0.42,1.23-0.66,2.55-0.66,3.92v195.86c0,6.73,5.46,12.19,12.19,12.19h31.52
			c6.73,0,12.19-5.46,12.19-12.19v-73.64c22.94,17.31,51.32,27.57,82.02,27.57c76.05,0,137.92-62.91,137.92-140.23
			C1580.94,1228.89,1580.7,1224.11,1580.22,1219.4z"/>
	</g>
	<g class="st3">
		<path class="st4" d="M760.94,1611.08c-10.8,0-20.63,2.9-29.5,8.7c-8.87,5.8-15.94,13.65-21.23,23.53
			c-5.29,9.89-7.93,20.8-7.93,32.73c0,17.35,4.77,32.15,14.32,44.42c11.82,13.92,27.91,20.88,48.25,20.88
			c12.96,0,25.01-3.42,36.15-10.28c2.5-1.66,4.43-3.73,5.8-6.22c1.36-2.49,2.05-5.05,2.05-7.71c0-3.09-0.88-5.91-2.64-8.45
			c-1.76-2.54-3.9-4.42-6.39-5.63c-2.5-1.22-5.12-1.82-7.84-1.82c-3.18,0-6.25,0.83-9.21,2.49c-3.75,2.43-7.42,3.87-11,4.31
			c-3.58,0.44-7.02,0.66-10.32,0.66c-12.51-0.77-20.46-7.07-23.87-18.89h65.31c4.54,0,8.44-1.63,11.68-4.89
			c3.24-3.26,4.86-7.15,4.86-11.68c0-16.68-5.52-31.27-16.54-43.75C790.95,1617.22,776.97,1611.08,760.94,1611.08z M740.82,1657.16
			c5.34-9.17,12.05-13.76,20.12-13.76c9.43,0,16.6,4.59,21.48,13.76H740.82z"/>
		<path class="st4" d="M921.49,1617.22h-16.03v-46.57c0-4.2-1.56-7.82-4.69-10.86c-3.13-3.04-6.85-4.56-11.17-4.56
			c-4.43,0-8.18,1.52-11.25,4.56c-3.07,3.04-4.6,6.66-4.6,10.86v46.57h-16.2c-4.43,0-8.18,1.52-11.25,4.56
			c-3.07,3.04-4.6,6.71-4.6,11.02c0,4.31,1.53,7.95,4.6,10.94c3.07,2.98,6.82,4.47,11.25,4.47h16.2v77.73c0,4.2,1.53,7.82,4.6,10.86
			c3.07,3.04,6.82,4.56,11.25,4.56c4.32,0,8.04-1.52,11.17-4.56c3.12-3.04,4.69-6.66,4.69-10.86v-77.73h16.03
			c4.43,0,8.18-1.49,11.25-4.47c3.07-2.98,4.6-6.63,4.6-10.94c0-4.31-1.53-7.98-4.6-11.02
			C929.67,1618.74,925.92,1617.22,921.49,1617.22z"/>
		<path class="st4" d="M1022.81,1617.22h-19.1v-46.57c0-4.2-1.54-7.82-4.6-10.86c-3.07-3.04-6.82-4.56-11.25-4.56
			c-4.43,0-8.18,1.52-11.25,4.56c-3.07,3.04-4.6,6.66-4.6,10.86v155.29c0,4.2,1.53,7.82,4.6,10.86c3.07,3.04,6.82,4.56,11.25,4.56
			c4.43,0,8.19-1.52,11.25-4.56c3.07-3.04,4.6-6.66,4.6-10.86v-77.73h19.1c12.39,0,20.69,3.59,24.9,10.77
			c2.61,4.53,3.92,8.78,3.92,12.76v54.19c0,4.2,1.53,7.82,4.6,10.86c3.07,3.04,6.82,4.56,11.25,4.56c4.54,0,8.38-1.52,11.51-4.56
			c3.13-3.04,4.69-6.66,4.69-10.86v-54.19c0-8.62-2.56-17.68-7.67-27.18C1064.64,1626.33,1046.9,1617.22,1022.81,1617.22z"/>
		<path class="st4" d="M1173.54,1611.08c-10.8,0-20.63,2.9-29.5,8.7c-8.87,5.8-15.94,13.65-21.23,23.53
			c-5.29,9.89-7.93,20.8-7.93,32.73c0,17.35,4.77,32.15,14.32,44.42c11.82,13.92,27.91,20.88,48.25,20.88
			c12.96,0,25.01-3.42,36.15-10.28c2.5-1.66,4.43-3.73,5.8-6.22c1.36-2.49,2.05-5.05,2.05-7.71c0-3.09-0.88-5.91-2.64-8.45
			c-1.76-2.54-3.9-4.42-6.39-5.63c-2.5-1.22-5.12-1.82-7.84-1.82c-3.18,0-6.25,0.83-9.21,2.49c-3.75,2.43-7.42,3.87-11,4.31
			c-3.58,0.44-7.02,0.66-10.32,0.66c-12.51-0.77-20.46-7.07-23.87-18.89h65.31c4.54,0,8.44-1.63,11.68-4.89
			c3.24-3.26,4.86-7.15,4.86-11.68c0-16.68-5.52-31.27-16.54-43.75C1203.55,1617.22,1189.57,1611.08,1173.54,1611.08z
			 M1153.42,1657.16c5.34-9.17,12.05-13.76,20.12-13.76c9.43,0,16.6,4.59,21.48,13.76H1153.42z"/>
		<path class="st4" d="M1313.3,1611.08c-8.87,0-16.43,1.27-22.68,3.81c-2.96-2.54-6.54-3.81-10.74-3.81c-4.66,0-8.61,1.6-11.85,4.81
			c-3.24,3.2-4.86,7.07-4.86,11.6v97.62c0,4.53,1.62,8.37,4.86,11.52c3.24,3.15,7.19,4.72,11.85,4.72c4.66,0,8.64-1.57,11.94-4.72
			c3.29-3.15,4.94-6.99,4.94-11.52v-73.25l0.34-1.66c1.02-2.76,3.58-4.58,7.67-5.47c2.95-0.66,5.8-0.99,8.53-0.99
			c4.66,0,8.61-1.58,11.85-4.72c3.24-3.15,4.86-6.99,4.86-11.52c0-4.53-1.62-8.4-4.86-11.6
			C1321.91,1612.69,1317.96,1611.08,1313.3,1611.08z"/>
		<path class="st4" d="M1487.29,1647.55c5.11-10.72,7.67-20.83,7.67-30.33c0-24.97-11.03-43.14-33.08-54.53
			c-11.14-4.97-21.54-7.46-31.2-7.46h-43.48c-4.32,0-8.04,1.52-11.17,4.56c-3.13,3.04-4.69,6.66-4.69,10.86v155.29
			c0,4.2,1.56,7.82,4.69,10.86c3.12,3.04,6.85,4.56,11.17,4.56c4.43,0,8.24-1.52,11.42-4.56c3.18-3.04,4.77-6.66,4.77-10.86v-46.57
			h26.77l35.3,54.86c3.64,4.75,8.18,7.13,13.64,7.13c2.73,0,5.46-0.77,8.19-2.32c5.11-3.65,7.67-8.01,7.67-13.09
			c0-2.98-0.8-5.74-2.39-8.29l-29.33-45.74C1473.48,1666.6,1481.5,1658.48,1487.29,1647.55z M1462.82,1619.95
			c-0.17,1.72-0.6,3.84-1.28,6.38c-0.68,2.54-1.76,5.14-3.24,7.79c-4.66,9.39-13.87,14.09-27.62,14.09h-27.28v-61.82
			c18.19,0,28.13,0.06,29.84,0.17c4.89,0.33,9.72,1.6,14.49,3.81c10.23,4.53,15.35,13.48,15.35,26.85
			C1463.08,1617.33,1462.99,1618.24,1462.82,1619.95z"/>
		<path class="st4" d="M1544.84,1553.9c-4.43,0-8.18,1.49-11.25,4.47c-3.07,2.98-4.6,6.63-4.6,10.94c0,4.31,1.53,7.98,4.6,11.02
			c3.07,3.04,6.82,4.56,11.25,4.56c4.32,0,8.07-1.52,11.25-4.56c3.18-3.04,4.77-6.71,4.77-11.02c0-4.31-1.59-7.95-4.77-10.94
			C1552.92,1555.4,1549.16,1553.9,1544.84,1553.9z"/>
		<path class="st4" d="M1544.84,1608.27c-4.43,0-8.18,1.55-11.25,4.64c-3.07,3.09-4.6,6.74-4.6,10.94v102.09
			c0,4.31,1.53,7.95,4.6,10.94c3.07,2.98,6.82,4.47,11.25,4.47c4.32,0,8.07-1.49,11.25-4.47c3.18-2.98,4.77-6.63,4.77-10.94v-102.09
			c0-4.2-1.59-7.84-4.77-10.94C1552.92,1609.81,1549.16,1608.27,1544.84,1608.27z"/>
		<path class="st4" d="M1714.25,1663.29c0-0.99-0.4-4.33-1.19-10.03c-0.8-5.69-2.9-11.82-6.31-18.4
			c-3.41-6.57-8.87-12.07-16.37-16.49c-9.44-4.86-19.89-7.29-31.37-7.29c-18.53,0-34.73,5.58-48.59,16.74
			c-4.09,3.65-6.14,7.85-6.14,12.6c0,3.65,1.25,7.07,3.75,10.28c3.75,3.98,8.07,5.97,12.96,5.97c3.75,0,7.25-1.22,10.49-3.65
			c3.24-2.43,7.36-4.61,12.36-6.55c5-1.93,10.23-2.9,15.69-2.9c4.89,0,9.66,1.11,14.32,3.31c2.84,1.77,4.77,5.42,5.8,10.94
			c-4.09-0.44-7.73-0.66-10.91-0.66l-12.62,0.33c-26.15,1.33-43.31,7.85-51.49,19.56c-5,6.52-7.5,13.7-7.5,21.55
			c0,3.09,0.4,6.19,1.19,9.28c2.61,10.61,7.96,18.79,16.03,24.53c8.07,5.75,18.24,8.62,30.52,8.62c5.12,0,10.46-0.5,16.03-1.49
			c0.91-0.22,1.59-0.33,2.05-0.33c7.27-1.43,13.92-3.7,19.95-6.8c3.3,5.97,8.3,8.95,15,8.95c4.54,0,8.44-1.63,11.68-4.89
			c3.24-3.26,4.86-7.05,4.86-11.35l-0.17-17.9V1663.29z M1677.08,1693.78c-1.48,2.65-3.87,5.25-7.16,7.79
			c-3.3,2.54-7.62,4.37-12.96,5.47l-1.19,0.17c-3.3,0.78-6.93,1.16-10.91,1.16c-3.98,0-6.93-0.44-8.87-1.33
			c-1.93-0.88-3.24-1.96-3.92-3.23c-0.68-1.27-1.14-2.46-1.36-3.56l-0.17-1.33c0-0.44,0.06-0.8,0.17-1.08
			c0.11-0.27,0.23-0.52,0.34-0.75c0.11-0.22,0.23-0.39,0.34-0.5c1.02-1.33,3.41-2.65,7.16-3.98c3.75-1.33,8.92-2.15,15.52-2.49
			l14.66-0.17c4.66,0,7.9,0.17,9.72,0.5L1677.08,1693.78z"/>
		<path class="st4" d="M1781.8,1559.79c-3.13-3.04-6.91-4.56-11.34-4.56c-4.43,0-8.18,1.52-11.25,4.56
			c-3.07,3.04-4.6,6.66-4.6,10.86v155.29c0,4.2,1.53,7.82,4.6,10.86c3.07,3.04,6.82,4.56,11.25,4.56c4.43,0,8.21-1.52,11.34-4.56
			c3.13-3.04,4.69-6.66,4.69-10.86v-155.29C1786.49,1566.45,1784.93,1562.83,1781.8,1559.79z"/>
		<path class="st4" d="M633.04,1628.07l-1.66-0.08v-48.36h31.71c4.43,0,8.24-1.52,11.42-4.56c3.18-3.04,4.77-6.77,4.77-11.19
			c0-4.2-1.59-7.81-4.77-10.86c-3.18-3.04-6.99-4.56-11.42-4.56h-95.66c-4.43,0-8.18,1.52-11.25,4.56c-3.07,3.04-4.6,6.66-4.6,10.86
			c0,4.42,1.53,8.15,4.6,11.19c3.07,3.04,6.82,4.56,11.25,4.56h32.06V1628l-1.37,0.06c-31.66,1.44-68.63,7.51-68.63,19.87
			c0,12.35,36.97,18.42,68.63,19.87l1.37,0.06v51.32c0,4.2,1.54,7.82,4.6,10.86c3.07,3.04,6.82,4.56,11.25,4.56
			c4.32,0,8.07-1.52,11.25-4.56c3.18-3.04,4.77-6.66,4.77-10.86v-51.34l1.66-0.08c31.53-1.45,68.34-7.52,68.34-19.85
			C701.38,1635.6,664.56,1629.53,633.04,1628.07z M598.3,1658.35c-37-1.61-56.71-8-56.71-11.99c0-3.98,19.71-10.36,56.71-12
			l1.18-0.05v24.09L598.3,1658.35z M632.85,1658.34l-1.47,0.07v-24.08l1.47,0.07c36.81,1.64,56.42,8.01,56.42,11.98
			C689.26,1650.33,669.66,1656.7,632.85,1658.34z"/>
	</g>
</g>
<g id="Layer_2">
	<path class="st4" d="M2316.06,942.36c0-42.61-104.93-79.72-260.12-99.1c17.14-27.99,25.75-61.28,25.75-99.93
		c0-59.47-19.99-109.18-59.95-149.15c-13.82-13.81-29.3-25.24-46.44-34.27c-41.54-21.9-91.48,8.14-91.48,55.11v3.24
		c0,20.44,10.26,39.5,27.29,50.8c3.84,2.55,7.47,5.41,10.89,8.57c17.58,16.31,26.38,37.89,26.38,64.74c0,26.86-8.8,48.6-26.38,65.23
		c-17.6,16.64-40.77,24.94-69.54,24.94h-126.61V653.17h47.23c32.84,0,59.47-26.62,59.47-59.47v0c0-32.84-26.62-59.47-59.47-59.47
		h-174.97h-5.58h-144.59c-31.04,0-56.2,25.16-56.2,56.2v0c0,31.04,25.16,56.2,56.2,56.2h144.59v193.26
		c-171.27,18.2-289.68,57.26-289.68,102.51c0,45.25,118.41,84.28,289.68,102.5v105.6c0,36.82,29.85,66.66,66.66,66.66h0
		c36.82,0,66.66-29.85,66.66-66.66V944.76h96.82l113.81,234.11c11.39,23.42,35.14,38.29,61.19,38.29h0c51,0,83.87-54.04,60.41-99.32
		l-37.5-72.4C2194.89,1027.55,2316.06,988.13,2316.06,942.36z M1351.1,932.67c0-34.05,97.71-63.57,241.41-78.65v157.27
		C1448.8,996.26,1351.1,966.72,1351.1,932.67z M2004,1013.45L1957,922.7c35.8-12.79,65.54-34.53,89.2-65.22
		c0.29-0.37,0.55-0.76,0.83-1.13c132.29,15.64,220.71,43.97,220.71,76.33C2267.75,968.42,2159.83,999.25,2004,1013.45z"/>
	<path class="st4" d="M1148.91,689.62c-4.33,0-7.59,4.11-6.99,8.7c0.48,3.63,0.73,7.33,0.73,11.11c0,42.99-32,77.84-71.48,77.84
		s-71.48-34.85-71.48-77.84c0-3.77,0.25-7.48,0.73-11.11c0.6-4.59-2.66-8.7-6.99-8.7H961.6c-3.61,0-6.68,2.91-7.05,6.76
		c-0.4,4.29-0.61,8.64-0.61,13.04c0,70.39,52.59,127.66,117.23,127.66c64.64,0,117.23-57.27,117.23-127.66
		c0-4.4-0.21-8.75-0.61-13.04c-0.36-3.85-3.43-6.76-7.05-6.76H1148.91z"/>
	<path class="st4" d="M1145.52,652.49H1016.4c-4.66,0-8.44-3.78-8.44-8.44v-33.24c0-4.66,3.78-8.44,8.44-8.44h129.12
		c4.66,0,8.44,3.78,8.44,8.44v33.24C1153.96,648.71,1150.18,652.49,1145.52,652.49z"/>
	<path class="st4" d="M553.72,940.24H424.41c-4.61,0-8.34-3.74-8.34-8.34v-33.44c0-4.61,3.74-8.34,8.34-8.34h129.32
		c4.61,0,8.34,3.74,8.34,8.34v33.44C562.07,936.51,558.33,940.24,553.72,940.24z"/>
	
		<linearGradient id="SVGID_00000124135364288501562750000002965556547381660603_" gradientUnits="userSpaceOnUse" x1="1091.2676" y1="825.8295" x2="944.377" y2="706.8798">
		<stop  offset="0.1667" style="stop-color:#50AF95"/>
		<stop  offset="0.2529" style="stop-color:#4AA38A"/>
		<stop  offset="0.4103" style="stop-color:#3B826F"/>
		<stop  offset="0.6211" style="stop-color:#234D41"/>
		<stop  offset="0.8751" style="stop-color:#020403"/>
		<stop  offset="0.8883" style="stop-color:#000000"/>
	</linearGradient>
	<path style="opacity:0.81;fill:url(#SVGID_00000124135364288501562750000002965556547381660603_);" d="M1082.66,786.25
		c-3.74,0.66-7.58,1.01-11.49,1.01c-39.48,0-71.48-34.85-71.48-77.84c0-3.77,0.25-7.48,0.73-11.11c0.6-4.59-2.66-8.7-6.99-8.7H961.6
		c-3.61,0-6.68,2.91-7.05,6.76c-0.4,4.29-0.61,8.64-0.61,13.04c0,70.39,52.59,127.66,117.23,127.66c3.88,0,7.71-0.22,11.49-0.62
		V786.25z"/>
	<g>
		<path class="st4" d="M686.33,689.62h-28.7c-6.13,0-11.1,4.97-11.1,11.1v178.3c0,6.13,4.97,11.1,11.1,11.1h28.7
			c6.13,0,11.1-4.97,11.1-11.1v-178.3C697.43,694.59,692.46,689.62,686.33,689.62z"/>
		<path class="st4" d="M591.5,689.63h-34.09c-4.64,0-8.12,4.09-7.47,8.69c0.5,3.64,0.78,7.34,0.78,11.11
			c0,42.99-34.29,77.84-76.56,77.84c-11.39,0-22.2-2.53-31.92-7.06c-26.45-12.35-42.76-39.56-42.76-68.75V591.02
			c0-6.17-5-11.17-11.17-11.17h-28.54c-6.17,0-11.17,5-11.17,11.17v118.41c0,11.74,1.56,23.09,4.51,33.9
			c14.62,54,63.35,93.76,121.05,93.76c69.22,0,125.56-57.27,125.56-127.66c0-4.4-0.24-8.75-0.67-13.04
			C598.65,692.54,595.37,689.63,591.5,689.63z"/>
		<path class="st4" d="M295.93,580.53h-31.78c-5.27,0-9.55,4.27-9.55,9.55v177.93c0,12.57-3.16,25.04-9.76,35.74
			c-13.54,21.96-37.55,36.56-64.92,36.56c-42.28,0-76.56-34.85-76.56-77.84c0-3.77,0.28-7.47,0.78-11.11
			c0.65-4.59-2.84-8.69-7.47-8.69H56.99c-0.63,0-1.17,0.46-1.26,1.09c-0.86,6.1-1.36,12.36-1.36,18.71
			c0,70.39,56.33,127.66,125.56,127.66c57.7,0,106.43-39.77,121.05-93.76c2.95-10.81,4.5-22.16,4.5-33.9V590.08
			C305.48,584.8,301.21,580.53,295.93,580.53z"/>
		<path class="st4" d="M815.52,652.49h120.4c7.07,0,12.8-5.73,12.8-12.8v-24.52c0-7.07-5.73-12.8-12.8-12.8h-120.4
			c-7.07,0-12.8,5.73-12.8,12.8v24.52C802.72,646.76,808.45,652.49,815.52,652.49z"/>
		<path class="st4" d="M1000.62,696.38c-0.39-3.85-3.68-6.76-7.55-6.76h-34.08c-4.63,0-8.13,4.11-7.48,8.7
			c0.51,3.63,0.78,7.33,0.78,11.11c0,42.99-34.28,77.84-76.56,77.84c-36.47,0-66.96-25.93-74.66-60.65v-25.9
			c0-1.79-0.44-3.48-1.19-4.98c-0.68-3.44-3.68-6.11-7.41-6.11h-2.49h-28.7h-2.89c-3.87,0-7.16,2.91-7.55,6.76
			c-0.03,0.25-0.03,0.51-0.06,0.76c-0.38,1.12-0.6,2.32-0.6,3.57v178.3c0,6.13,4.97,11.1,11.1,11.1h28.7c6.13,0,11.1-4.97,11.1-11.1
			v-67.04c20.88,15.76,46.72,25.1,74.66,25.1c69.23,0,125.56-57.27,125.56-127.66C1001.28,705.02,1001.05,700.67,1000.62,696.38z"/>
	</g>
	<g>
		<path class="st4" d="M254.79,1052.95c-9.83,0-18.78,2.64-26.85,7.92c-8.07,5.28-14.51,12.42-19.33,21.42
			c-4.81,9-7.22,18.94-7.22,29.8c0,15.79,4.35,29.27,13.04,40.43c10.76,12.67,25.4,19.01,43.93,19.01c11.8,0,22.76-3.12,32.91-9.35
			c2.27-1.51,4.04-3.4,5.28-5.66c1.24-2.26,1.86-4.6,1.86-7.02c0-2.82-0.8-5.38-2.41-7.69c-1.61-2.31-3.55-4.02-5.82-5.13
			c-2.28-1.11-4.66-1.66-7.14-1.66c-2.9,0-5.69,0.75-8.38,2.26c-3.42,2.21-6.75,3.52-10.01,3.92c-3.26,0.4-6.39,0.6-9.39,0.6
			c-11.39-0.7-18.63-6.44-21.73-17.2h59.45c4.14,0,7.68-1.48,10.63-4.45c2.95-2.97,4.42-6.51,4.42-10.64
			c0-15.19-5.02-28.46-15.06-39.83C282.1,1058.54,269.38,1052.95,254.79,1052.95z M236.47,1094.9c4.86-8.35,10.97-12.52,18.32-12.52
			c8.59,0,15.11,4.18,19.56,12.52H236.47z"/>
		<path class="st4" d="M400.94,1058.54h-14.59v-42.4c0-3.82-1.42-7.11-4.27-9.88c-2.85-2.76-6.24-4.15-10.17-4.15
			c-4.04,0-7.45,1.38-10.24,4.15c-2.79,2.77-4.19,6.06-4.19,9.88v42.4h-14.75c-4.04,0-7.45,1.38-10.24,4.15
			c-2.79,2.77-4.19,6.11-4.19,10.03c0,3.92,1.4,7.24,4.19,9.96c2.79,2.71,6.21,4.07,10.24,4.07h14.75v70.76
			c0,3.82,1.4,7.12,4.19,9.88c2.79,2.77,6.21,4.15,10.24,4.15c3.93,0,7.32-1.38,10.17-4.15c2.84-2.76,4.27-6.06,4.27-9.88v-70.76
			h14.59c4.04,0,7.45-1.36,10.24-4.07c2.79-2.72,4.19-6.04,4.19-9.96c0-3.92-1.4-7.27-4.19-10.03
			C408.39,1059.92,404.98,1058.54,400.94,1058.54z"/>
		<path class="st4" d="M493.18,1058.54h-17.38v-42.4c0-3.82-1.4-7.11-4.19-9.88c-2.79-2.76-6.21-4.15-10.25-4.15
			c-4.04,0-7.45,1.38-10.24,4.15c-2.79,2.77-4.19,6.06-4.19,9.88v141.37c0,3.82,1.4,7.12,4.19,9.88c2.79,2.77,6.21,4.15,10.24,4.15
			c4.04,0,7.45-1.38,10.25-4.15c2.79-2.76,4.19-6.06,4.19-9.88v-70.76h17.38c11.28,0,18.83,3.27,22.66,9.81
			c2.38,4.13,3.57,8,3.57,11.62v49.34c0,3.82,1.4,7.12,4.19,9.88c2.79,2.77,6.21,4.15,10.25,4.15c4.14,0,7.63-1.38,10.48-4.15
			c2.85-2.76,4.27-6.06,4.27-9.88v-49.34c0-7.85-2.33-16.09-6.98-24.75C531.26,1066.83,515.11,1058.54,493.18,1058.54z"/>
		<path class="st4" d="M630.4,1052.95c-9.83,0-18.78,2.64-26.85,7.92c-8.07,5.28-14.51,12.42-19.33,21.42
			c-4.81,9-7.22,18.94-7.22,29.8c0,15.79,4.35,29.27,13.04,40.43c10.76,12.67,25.4,19.01,43.93,19.01c11.8,0,22.76-3.12,32.91-9.35
			c2.27-1.51,4.04-3.4,5.28-5.66c1.24-2.26,1.86-4.6,1.86-7.02c0-2.82-0.8-5.38-2.41-7.69c-1.61-2.31-3.55-4.02-5.82-5.13
			c-2.28-1.11-4.66-1.66-7.14-1.66c-2.9,0-5.69,0.75-8.38,2.26c-3.42,2.21-6.75,3.52-10.01,3.92c-3.26,0.4-6.39,0.6-9.39,0.6
			c-11.39-0.7-18.63-6.44-21.73-17.2h59.45c4.14,0,7.68-1.48,10.63-4.45c2.95-2.97,4.42-6.51,4.42-10.64
			c0-15.19-5.02-28.46-15.06-39.83C657.72,1058.54,644.99,1052.95,630.4,1052.95z M612.08,1094.9c4.86-8.35,10.97-12.52,18.32-12.52
			c8.59,0,15.11,4.18,19.56,12.52H612.08z"/>
		<path class="st4" d="M757.63,1052.95c-8.07,0-14.95,1.16-20.65,3.47c-2.69-2.31-5.95-3.47-9.78-3.47c-4.24,0-7.84,1.46-10.79,4.38
			c-2.95,2.92-4.42,6.44-4.42,10.56v88.87c0,4.13,1.47,7.62,4.42,10.49c2.95,2.87,6.54,4.3,10.79,4.3c4.24,0,7.86-1.43,10.87-4.3
			c3-2.87,4.5-6.36,4.5-10.49v-66.69l0.31-1.51c0.93-2.51,3.26-4.17,6.98-4.98c2.69-0.6,5.28-0.9,7.76-0.9
			c4.24,0,7.84-1.43,10.79-4.3c2.95-2.86,4.42-6.36,4.42-10.49c0-4.12-1.47-7.64-4.42-10.56
			C765.47,1054.41,761.87,1052.95,757.63,1052.95z"/>
		<path class="st4" d="M916.02,1086.15c4.66-9.76,6.98-18.96,6.98-27.61c0-22.73-10.04-39.28-30.11-49.64
			c-10.14-4.53-19.61-6.79-28.41-6.79H824.9c-3.93,0-7.32,1.38-10.17,4.15c-2.85,2.77-4.27,6.06-4.27,9.88v141.37
			c0,3.82,1.42,7.12,4.27,9.88c2.84,2.77,6.23,4.15,10.17,4.15c4.04,0,7.5-1.38,10.4-4.15c2.9-2.76,4.35-6.06,4.35-9.88v-42.4h24.37
			l32.13,49.94c3.31,4.32,7.45,6.49,12.42,6.49c2.48,0,4.97-0.7,7.45-2.11c4.66-3.32,6.98-7.29,6.98-11.92
			c0-2.71-0.73-5.23-2.17-7.54l-26.7-41.64C903.45,1103.5,910.74,1096.1,916.02,1086.15z M893.75,1061.03
			c-0.16,1.56-0.54,3.5-1.16,5.81c-0.62,2.31-1.61,4.68-2.95,7.09c-4.24,8.55-12.63,12.83-25.15,12.83h-24.84v-56.28
			c16.56,0,25.61,0.05,27.16,0.15c4.45,0.3,8.85,1.46,13.19,3.47c9.31,4.13,13.97,12.27,13.97,24.44
			C893.98,1058.64,893.9,1059.47,893.75,1061.03z"/>
		<path class="st4" d="M968.41,1000.9c-4.04,0-7.45,1.36-10.24,4.07c-2.79,2.72-4.19,6.04-4.19,9.96c0,3.92,1.4,7.27,4.19,10.03
			c2.79,2.77,6.21,4.15,10.24,4.15c3.93,0,7.35-1.38,10.25-4.15c2.9-2.77,4.35-6.11,4.35-10.03c0-3.92-1.45-7.24-4.35-9.96
			C975.76,1002.26,972.34,1000.9,968.41,1000.9z"/>
		<path class="st4" d="M968.41,1050.39c-4.04,0-7.45,1.41-10.24,4.22c-2.79,2.82-4.19,6.14-4.19,9.96v92.94
			c0,3.92,1.4,7.24,4.19,9.96c2.79,2.72,6.21,4.07,10.24,4.07c3.93,0,7.35-1.36,10.25-4.07c2.9-2.72,4.35-6.04,4.35-9.96v-92.94
			c0-3.82-1.45-7.14-4.35-9.96C975.76,1051.8,972.34,1050.39,968.41,1050.39z"/>
		<path class="st4" d="M1122.64,1100.48c0-0.91-0.36-3.95-1.09-9.13c-0.73-5.18-2.64-10.76-5.74-16.75
			c-3.1-5.98-8.07-10.99-14.9-15.01c-8.59-4.43-18.11-6.64-28.56-6.64c-16.87,0-31.61,5.08-44.24,15.24
			c-3.73,3.32-5.59,7.14-5.59,11.47c0,3.32,1.14,6.44,3.42,9.35c3.41,3.62,7.35,5.43,11.8,5.43c3.42,0,6.6-1.11,9.55-3.32
			c2.95-2.21,6.7-4.2,11.25-5.96c4.55-1.76,9.31-2.64,14.28-2.64c4.45,0,8.8,1.01,13.04,3.02c2.59,1.61,4.35,4.93,5.28,9.96
			c-3.73-0.4-7.04-0.6-9.93-0.6l-11.49,0.3c-23.8,1.21-39.43,7.14-46.88,17.8c-4.56,5.94-6.83,12.47-6.83,19.62
			c0,2.82,0.36,5.63,1.09,8.45c2.38,9.66,7.24,17.1,14.59,22.33c7.35,5.23,16.61,7.85,27.78,7.85c4.66,0,9.52-0.45,14.59-1.36
			c0.83-0.2,1.45-0.3,1.86-0.3c6.62-1.31,12.68-3.37,18.16-6.19c3,5.43,7.55,8.15,13.66,8.15c4.14,0,7.68-1.48,10.63-4.45
			c2.95-2.97,4.42-6.41,4.42-10.34l-0.16-16.29V1100.48z M1088.8,1128.24c-1.35,2.42-3.52,4.78-6.52,7.09
			c-3,2.31-6.93,3.98-11.8,4.98l-1.09,0.15c-3,0.71-6.31,1.06-9.93,1.06c-3.62,0-6.31-0.4-8.07-1.21c-1.76-0.8-2.95-1.78-3.57-2.94
			c-0.62-1.15-1.04-2.24-1.24-3.24l-0.15-1.21c0-0.4,0.05-0.73,0.15-0.98c0.1-0.25,0.21-0.48,0.31-0.68c0.1-0.2,0.21-0.35,0.31-0.45
			c0.93-1.21,3.1-2.41,6.52-3.62c3.41-1.21,8.12-1.96,14.13-2.26l13.35-0.15c4.24,0,7.19,0.15,8.85,0.45L1088.8,1128.24z"/>
		<path class="st4" d="M1184.13,1006.26c-2.85-2.76-6.29-4.15-10.32-4.15c-4.04,0-7.45,1.38-10.24,4.15
			c-2.79,2.77-4.19,6.06-4.19,9.88v141.37c0,3.82,1.4,7.12,4.19,9.88c2.79,2.77,6.21,4.15,10.24,4.15c4.04,0,7.48-1.38,10.32-4.15
			c2.85-2.76,4.27-6.06,4.27-9.88v-141.37C1188.39,1012.32,1186.97,1009.03,1184.13,1006.26z"/>
		<path class="st4" d="M138.35,1068.42l-1.51-0.07v-44.02h28.87c4.04,0,7.5-1.38,10.4-4.15c2.9-2.76,4.35-6.16,4.35-10.18
			c0-3.82-1.45-7.11-4.35-9.88c-2.9-2.76-6.36-4.15-10.4-4.15H78.63c-4.04,0-7.45,1.38-10.24,4.15c-2.79,2.77-4.19,6.06-4.19,9.88
			c0,4.02,1.4,7.42,4.19,10.18c2.79,2.77,6.21,4.15,10.24,4.15h29.18v44.03l-1.25,0.06c-28.82,1.31-62.48,6.83-62.48,18.09
			c0,11.24,33.66,16.77,62.48,18.09l1.25,0.06v46.72c0,3.82,1.4,7.12,4.19,9.88c2.79,2.77,6.21,4.15,10.25,4.15
			c3.93,0,7.35-1.38,10.24-4.15c2.9-2.76,4.35-6.06,4.35-9.88v-46.74l1.51-0.07c28.7-1.32,62.21-6.85,62.21-18.07
			C200.57,1075.27,167.05,1069.74,138.35,1068.42z M106.73,1095.98c-33.68-1.47-51.62-7.28-51.62-10.91
			c0-3.62,17.94-9.43,51.63-10.92l1.08-0.05v21.93L106.73,1095.98z M138.18,1095.97l-1.34,0.06v-21.92l1.34,0.06
			c33.51,1.49,51.36,7.29,51.36,10.9C189.53,1088.68,171.69,1094.48,138.18,1095.97z"/>
	</g>
</g>
</svg>
