<svg id="Layer_2" data-name="Layer 2" xmlns="http://www.w3.org/2000/svg" viewBox="0 0 1487.37 1002.51"><defs><style>.cls-1{fill:#50af95;}</style></defs><path class="cls-1" d="M1913.69,1020.86c0-62.56-154-117-381.84-145.48q37.73-61.62,37.79-146.69,0-131-88-218.94a281.58,281.58,0,0,0-68.17-50.31c-61-32.15-134.3,11.95-134.3,80.89v4.75a89.54,89.54,0,0,0,40.06,74.58,126.42,126.42,0,0,1,16,12.58q38.7,35.91,38.72,95T1335.21,823q-38.74,36.63-102.09,36.61H1047.26V596.34h69.33a87.31,87.31,0,0,0,87.3-87.3h0a87.31,87.31,0,0,0-87.3-87.3H639.29a82.5,82.5,0,0,0-82.49,82.5h0a82.5,82.5,0,0,0,82.49,82.5H851.55v283.7c-251.41,26.72-425.24,84.06-425.24,150.49s173.83,123.71,425.24,150.46v155a97.86,97.86,0,0,0,97.86,97.86h0a97.86,97.86,0,0,0,97.85-97.86v-302h142.13l167.07,343.67a99.87,99.87,0,0,0,89.82,56.21h0c74.86,0,123.11-79.33,88.68-145.81l-55-106.28C1735.81,1145.91,1913.69,1088,1913.69,1020.86ZM497.16,1006.63c0-50,143.43-93.32,354.39-115.46V1122C640.59,1100,497.16,1056.61,497.16,1006.63Zm958.44,118.59L1386.6,992q78.84-28.15,131-95.74c.42-.55.8-1.11,1.22-1.66,194.2,23,324,64.54,324,112C1842.76,1059.11,1684.34,1104.37,1455.6,1125.22Z" transform="translate(-426.31 -421.74)"/></svg>