<svg width="25" height="25" viewBox="0 0 25 25" fill="none" xmlns="http://www.w3.org/2000/svg">
<path d="M12.0027 24.0546C8.72265 24.0546 8.33599 24.0373 7.05599 23.9813C6.05781 23.9485 5.07256 23.7455 4.14265 23.3813C3.34689 23.0716 2.62423 22.5998 2.02055 21.9959C1.41687 21.392 0.945367 20.6691 0.635988 19.8733C0.28573 18.94 0.0968122 17.9539 0.0773217 16.9573C0.00265502 15.6799 0.00265503 15.2613 0.00265503 12.0066C0.00265503 8.71726 0.0199884 8.33326 0.0773217 7.05993C0.0972385 6.06462 0.28615 5.07994 0.635988 4.14793C0.945011 3.35104 1.41683 2.62736 2.02131 2.02311C2.6258 1.41886 3.34965 0.947312 4.14665 0.638592C5.07818 0.286862 6.06312 0.0974507 7.05865 0.0785917C8.33199 0.00659166 8.75065 0.0065918 12.0027 0.0065918C15.3093 0.0065918 15.6893 0.023925 16.9493 0.0785917C17.9467 0.0972583 18.936 0.286592 19.8693 0.638592C20.6661 0.94767 21.3898 1.41934 21.9942 2.02355C22.5987 2.62775 23.0706 3.35125 23.38 4.14793C23.736 5.09459 23.9267 6.09459 23.9413 7.10393C24.016 8.38126 24.016 8.79859 24.016 12.0519C24.016 15.3053 23.9973 15.7319 23.9413 16.9946C23.9214 17.9922 23.732 18.9791 23.3813 19.9133C23.0711 20.7097 22.5988 21.4329 21.9942 22.0371C21.3896 22.6412 20.666 23.113 19.8693 23.4226C18.936 23.7719 17.9507 23.9613 16.9547 23.9813C15.6813 24.0546 15.264 24.0546 12.0027 24.0546ZM11.9573 2.11726C8.69599 2.11726 8.35732 2.13326 7.08399 2.19059C6.32352 2.20053 5.57039 2.34079 4.85732 2.60526C4.33723 2.80461 3.86468 3.11074 3.47014 3.5039C3.0756 3.89706 2.76783 4.36853 2.56665 4.88793C2.29999 5.60792 2.15999 6.36926 2.15199 7.13726C2.08132 8.42926 2.08132 8.76793 2.08132 12.0066C2.08132 15.2066 2.09332 15.5946 2.15199 16.8786C2.16399 17.6386 2.30399 18.3919 2.56665 19.1053C2.97465 20.1546 3.80665 20.9839 4.85865 21.3866C5.5708 21.6527 6.32379 21.793 7.08399 21.8013C8.37465 21.8759 8.71465 21.8759 11.9573 21.8759C15.228 21.8759 15.5667 21.8599 16.8293 21.8013C17.5899 21.7921 18.3431 21.6518 19.056 21.3866C19.5733 21.1857 20.0432 20.8794 20.4357 20.4871C20.8282 20.0948 21.1348 19.6251 21.336 19.1079C21.6027 18.3879 21.7427 17.6253 21.7507 16.8573H21.7653C21.8227 15.5826 21.8227 15.2426 21.8227 11.9853C21.8227 8.72793 21.808 8.38526 21.7507 7.11192C21.7386 6.35254 21.5984 5.60063 21.336 4.88793C21.1353 4.36999 20.8289 3.89953 20.4363 3.50652C20.0438 3.11352 19.5737 2.80658 19.056 2.60526C18.3427 2.33859 17.5893 2.19993 16.8293 2.19059C15.54 2.11726 15.2027 2.11726 11.9573 2.11726ZM12.0027 18.1653C10.7834 18.166 9.59133 17.8052 8.57717 17.1285C7.56301 16.4517 6.77233 15.4894 6.30514 14.3632C5.83795 13.237 5.71523 11.9976 5.95251 10.8017C6.18979 9.60574 6.7764 8.50704 7.63816 7.64454C8.49992 6.78204 9.59811 6.19447 10.7938 5.95616C11.9895 5.71784 13.2291 5.83948 14.3557 6.3057C15.4822 6.77192 16.4453 7.56176 17.1229 8.57534C17.8006 9.58891 18.1624 10.7807 18.1627 11.9999C18.1605 13.6335 17.511 15.1996 16.3564 16.3553C15.2018 17.5109 13.6362 18.1617 12.0027 18.1653ZM12.0027 7.99726C11.2115 7.99726 10.4382 8.23186 9.78037 8.67138C9.12258 9.11091 8.60989 9.73562 8.30714 10.4665C8.00439 11.1974 7.92517 12.0017 8.07951 12.7776C8.23385 13.5535 8.61482 14.2663 9.17423 14.8257C9.73364 15.3851 10.4464 15.7661 11.2223 15.9204C11.9982 16.0747 12.8025 15.9955 13.5334 15.6928C14.2643 15.39 14.889 14.8773 15.3285 14.2195C15.7681 13.5617 16.0027 12.7884 16.0027 11.9973C16.0002 10.9372 15.578 9.92117 14.8284 9.17155C14.0787 8.42194 13.0628 7.99972 12.0027 7.99726ZM18.4027 7.04659C18.2139 7.04589 18.0271 7.00802 17.853 6.93514C17.6789 6.86226 17.5208 6.7558 17.3879 6.62184C17.1193 6.35128 16.9692 5.98513 16.9707 5.60393C16.9721 5.22272 17.1249 4.85769 17.3954 4.58914C17.666 4.32059 18.0321 4.17051 18.4133 4.17193C18.7945 4.17334 19.1596 4.32613 19.4281 4.59668C19.6967 4.86723 19.8467 5.23339 19.8453 5.61459C19.8439 5.9958 19.6911 6.36083 19.4206 6.62938C19.15 6.89793 18.7839 7.04801 18.4027 7.04659Z" fill="#1D1D1D"/>
</svg>
