<svg width="26" height="25" viewBox="0 0 26 25" fill="none" xmlns="http://www.w3.org/2000/svg">
<path d="M24.07 0.995921C23.749 1.01928 23.4339 1.09459 23.137 1.21892H23.133C22.848 1.33192 21.493 1.90192 19.433 2.76592L12.051 5.87492C6.754 8.10492 1.547 10.3009 1.547 10.3009L1.609 10.2769C1.609 10.2769 1.25 10.3949 0.874997 10.6519C0.643324 10.7993 0.44397 10.9922 0.288997 11.2189C0.104997 11.4889 -0.0430034 11.9019 0.0119966 12.3289C0.101997 13.0509 0.569996 13.4839 0.905996 13.7229C1.246 13.9649 1.57 14.0779 1.57 14.0779H1.578L6.461 15.7229C6.68 16.4259 7.949 20.5979 8.254 21.5589C8.434 22.1329 8.609 22.4919 8.828 22.7659C8.934 22.9059 9.058 23.0229 9.207 23.1169C9.28446 23.162 9.36705 23.1976 9.453 23.2229L9.403 23.2109C9.418 23.2149 9.43 23.2269 9.441 23.2309C9.481 23.2419 9.508 23.2459 9.559 23.2539C10.332 23.4879 10.953 23.0079 10.953 23.0079L10.988 22.9799L13.871 20.3549L18.703 24.0619L18.813 24.1089C19.82 24.5509 20.84 24.3049 21.379 23.8709C21.922 23.4339 22.133 22.8749 22.133 22.8749L22.168 22.7849L25.902 3.65592C26.008 3.18392 26.035 2.74192 25.918 2.31292C25.7973 1.87875 25.5188 1.50533 25.137 1.26592C24.8164 1.07104 24.4447 0.976969 24.07 0.995921ZM23.969 3.04592C23.965 3.10892 23.977 3.10192 23.949 3.22292V3.23392L20.25 22.1639C20.234 22.1909 20.207 22.2499 20.133 22.3089C20.055 22.3709 19.993 22.4099 19.668 22.2809L13.758 17.7499L10.188 21.0039L10.938 16.2139L20.594 7.21392C20.992 6.84392 20.859 6.76592 20.859 6.76592C20.887 6.31192 20.258 6.63292 20.258 6.63292L8.082 14.1759L8.078 14.1559L2.242 12.1909V12.1869L2.227 12.1839C2.23723 12.1805 2.24725 12.1765 2.257 12.1719L2.289 12.1559L2.32 12.1449C2.32 12.1449 7.531 9.94892 12.828 7.71892C15.48 6.60192 18.152 5.47692 20.207 4.60892C22.262 3.74592 23.781 3.11292 23.867 3.07892C23.949 3.04692 23.91 3.04692 23.969 3.04692V3.04592Z" fill="#1D1D1D"/>
</svg>
