<svg width="30" height="25" viewBox="0 0 30 25" fill="none" xmlns="http://www.w3.org/2000/svg">
<path fill-rule="evenodd" clip-rule="evenodd" d="M13.4304 7.01835C13.4304 3.33408 16.4171 0.347412 20.1013 0.347412C22.2645 0.347412 23.9904 1.36928 25.1467 2.85408C26.3697 2.6034 27.5421 2.14985 28.6155 1.51221C28.1998 2.80545 27.3298 3.90435 26.1664 4.60555L26.1707 4.61195C27.2751 4.4785 28.3536 4.18157 29.3707 3.73088L29.3685 3.73515C28.6496 4.81248 27.7472 5.76181 26.7061 6.53621C26.7616 6.91381 26.7915 7.29141 26.7915 7.66688C26.7915 15.5325 20.7989 24.6802 9.77813 24.6802C6.52843 24.6831 3.34668 23.7499 0.613329 21.9922C0.484646 21.9096 0.375223 21.8003 0.292478 21.6717C0.209734 21.5432 0.155601 21.3983 0.13375 21.247C0.1119 21.0956 0.122841 20.9414 0.165833 20.7946C0.208826 20.6479 0.282864 20.5121 0.382929 20.3965C0.478085 20.2383 0.616841 20.1109 0.782569 20.0295C0.948297 19.9482 1.13397 19.9163 1.31733 19.9378C3.27146 20.1682 5.22133 19.9293 6.94293 19.1783C6.09377 18.8032 5.33357 18.2526 4.71221 17.5629C4.09086 16.8731 3.6224 16.0598 3.3376 15.1762C3.28493 15.0119 3.27755 14.8364 3.31622 14.6682C3.35489 14.5 3.43818 14.3453 3.55733 14.2205C2.85623 13.6052 2.29465 12.8472 1.91018 11.9974C1.52571 11.1475 1.32722 10.2253 1.328 9.29248V9.21995C1.32795 8.99677 1.40566 8.78054 1.54777 8.60845C1.68987 8.43637 1.8875 8.31917 2.10666 8.27701C1.62299 7.34363 1.37127 6.30747 1.3728 5.25621C1.3728 4.25781 1.3792 2.99915 2.08106 1.86421C2.15605 1.74398 2.25673 1.64184 2.37586 1.56512C2.495 1.4884 2.62964 1.439 2.77013 1.42048C2.97384 1.35623 3.19214 1.35462 3.39677 1.41586C3.6014 1.4771 3.78293 1.59836 3.91786 1.76395C6.29594 4.68936 9.69726 6.60127 13.4325 7.11221V7.01835H13.4304ZM9.77813 22.5469C8.1459 22.5481 6.52472 22.2792 4.98026 21.7511C6.83794 21.4447 8.59016 20.6808 10.0789 19.5282C10.235 19.4058 10.3493 19.2381 10.4061 19.0481C10.463 18.8582 10.4596 18.6552 10.3965 18.4673C10.3334 18.2793 10.2136 18.1154 10.0536 17.9983C9.89356 17.8811 9.7012 17.8164 9.50293 17.813C8.78872 17.8002 8.08713 17.6225 7.45287 17.2939C6.81861 16.9653 6.26883 16.4946 5.8464 15.9186C6.25173 15.8866 6.64853 15.8162 7.03253 15.7138C7.24186 15.6579 7.42609 15.5327 7.55528 15.3588C7.68448 15.1848 7.75102 14.9723 7.7441 14.7557C7.73718 14.5391 7.65719 14.3313 7.51716 14.1659C7.37712 14.0006 7.18527 13.8875 6.9728 13.845C6.16118 13.6806 5.4082 13.3024 4.79163 12.7496C4.17507 12.1968 3.71729 11.4894 3.4656 10.7005C3.89226 10.8029 4.33813 10.8647 4.79466 10.8797C5.00329 10.8867 5.20852 10.8255 5.37926 10.7054C5.55 10.5853 5.67694 10.4129 5.74085 10.2141C5.80476 10.0154 5.80215 9.80128 5.73343 9.60417C5.6647 9.40706 5.5336 9.23772 5.36 9.12181C4.72341 8.69772 4.20143 8.12296 3.84043 7.44859C3.47943 6.77422 3.29058 6.02113 3.29066 5.25621C3.29066 4.89781 3.29706 4.57995 3.3184 4.28981C6.30351 7.33619 10.3268 9.146 14.5867 9.35861C14.7512 9.36698 14.9154 9.33714 15.0664 9.27143C15.2174 9.20572 15.3512 9.10592 15.4572 8.97987C15.5632 8.85381 15.6386 8.70491 15.6774 8.54485C15.7163 8.38479 15.7175 8.2179 15.6811 8.05728C15.5244 7.39115 15.5204 6.69821 15.6694 6.03032C15.8184 5.36243 16.1165 4.73689 16.5415 4.20052C16.9664 3.66415 17.5072 3.23084 18.1233 2.93302C18.7394 2.6352 19.4149 2.48058 20.0992 2.48075C22.7317 2.48075 24.656 4.91915 24.656 7.66901C24.656 14.6151 19.3739 22.5469 9.776 22.5469H9.77813Z" fill="#1D1D1D"/>
</svg>
