<svg width="23" height="19" viewBox="0 0 23 19" fill="none" xmlns="http://www.w3.org/2000/svg">
<path fill-rule="evenodd" clip-rule="evenodd" d="M10.5727 5.51394C10.5727 2.75074 12.8127 0.510742 15.5759 0.510742C17.1983 0.510742 18.4927 1.27714 19.3599 2.39074C20.2772 2.20273 21.1565 1.86257 21.9615 1.38434C21.6498 2.35427 20.9973 3.17844 20.1247 3.70434L20.1279 3.70914C20.9563 3.60906 21.7651 3.38636 22.5279 3.04834L22.5263 3.05154C21.9871 3.85954 21.3103 4.57154 20.5295 5.15234C20.5711 5.43554 20.5935 5.71874 20.5935 6.00034C20.5935 11.8995 16.0991 18.7603 7.83354 18.7603C5.39626 18.7625 3.00995 18.0626 0.959936 16.7443C0.863423 16.6824 0.781356 16.6004 0.719298 16.504C0.657239 16.4076 0.61664 16.2989 0.600252 16.1854C0.583864 16.0719 0.59207 15.9562 0.624314 15.8461C0.656558 15.7361 0.712087 15.6343 0.787136 15.5475C0.858503 15.4289 0.96257 15.3333 1.08687 15.2723C1.21116 15.2113 1.35041 15.1874 1.48794 15.2035C2.95354 15.3763 4.41594 15.1971 5.70714 14.6339C5.07027 14.3526 4.50012 13.9397 4.0341 13.4223C3.56808 12.905 3.21674 12.295 3.00314 11.6323C2.96364 11.5091 2.9581 11.3775 2.9871 11.2513C3.0161 11.1252 3.07857 11.0092 3.16794 10.9155C2.64211 10.4541 2.22092 9.88562 1.93257 9.24821C1.64422 8.6108 1.49535 7.91914 1.49594 7.21954V7.16514C1.4959 6.99776 1.55418 6.83559 1.66076 6.70652C1.76734 6.57746 1.91556 6.48956 2.07994 6.45794C1.71718 5.7579 1.52839 4.98079 1.52954 4.19234C1.52954 3.44354 1.53434 2.49954 2.06074 1.64834C2.11698 1.55817 2.19248 1.48156 2.28184 1.42402C2.37119 1.36648 2.47217 1.32943 2.57754 1.31554C2.73032 1.26736 2.89404 1.26615 3.04752 1.31208C3.20099 1.35801 3.33714 1.44895 3.43834 1.57314C5.22189 3.76721 7.77288 5.20114 10.5743 5.58434V5.51394H10.5727ZM7.83354 17.1603C6.60936 17.1612 5.39348 16.9596 4.23514 16.5635C5.6284 16.3337 6.94256 15.7608 8.05914 14.8963C8.17616 14.8046 8.26188 14.6788 8.30453 14.5363C8.34717 14.3938 8.34465 14.2416 8.2973 14.1006C8.24995 13.9596 8.16011 13.8368 8.04011 13.7489C7.92011 13.661 7.77584 13.6125 7.62714 13.6099C7.09148 13.6003 6.56529 13.4671 6.08959 13.2206C5.6139 12.9742 5.20156 12.6212 4.88474 12.1891C5.18874 12.1651 5.48634 12.1123 5.77434 12.0355C5.93133 11.9936 6.06951 11.8997 6.1664 11.7693C6.2633 11.6388 6.3132 11.4794 6.30801 11.317C6.30282 11.1545 6.24283 10.9987 6.13781 10.8746C6.03278 10.7506 5.88889 10.6658 5.72954 10.6339C5.12083 10.5106 4.55609 10.227 4.09366 9.8124C3.63124 9.39779 3.28791 8.86723 3.09914 8.27554C3.41914 8.35234 3.75354 8.39874 4.09594 8.40994C4.25241 8.41521 4.40633 8.36933 4.53438 8.27925C4.66244 8.18918 4.75764 8.05982 4.80557 7.91078C4.85351 7.76174 4.85155 7.60114 4.80001 7.45331C4.74847 7.30548 4.65014 7.17847 4.51994 7.09154C4.0425 6.77347 3.65101 6.3424 3.38026 5.83662C3.10951 5.33085 2.96787 4.76603 2.96794 4.19234C2.96794 3.92354 2.97274 3.68514 2.98874 3.46754C5.22757 5.75232 8.24507 7.10968 11.4399 7.26914C11.5633 7.27542 11.6865 7.25304 11.7997 7.20375C11.913 7.15447 12.0133 7.07962 12.0928 6.98508C12.1723 6.89054 12.2289 6.77887 12.258 6.65882C12.2871 6.53877 12.2881 6.41361 12.2607 6.29314C12.1432 5.79354 12.1402 5.27384 12.252 4.77292C12.3637 4.27201 12.5873 3.80285 12.9061 3.40057C13.2248 2.99829 13.6303 2.67331 14.0924 2.44995C14.5545 2.22658 15.0611 2.11062 15.5743 2.11074C17.5487 2.11074 18.9919 3.93954 18.9919 6.00194C18.9919 11.2115 15.0303 17.1603 7.83194 17.1603H7.83354Z" fill="#FFFBF5"/>
</svg>
